<?xml version="1.0" encoding="UTF-8"?>
<svg version="1.1" xmlns="http://www.w3.org/2000/svg" width="512" height="512">
<path d="M0 0 C9.54065132 6.05938096 15.47003973 13.63073663 18.90625 24.4453125 C20.89490387 35.3722171 18.80876 45.09241521 12.64453125 54.19140625 C7.1982759 61.26953591 1.6806915 64.63768617 -6.73046875 67.44140625 C-7.06046875 89.88140625 -7.39046875 112.32140625 -7.73046875 135.44140625 C-4.76046875 135.44140625 -1.79046875 135.44140625 1.26953125 135.44140625 C1.59953125 134.26578125 1.92953125 133.09015625 2.26953125 131.87890625 C6.3073643 119.89748575 12.9495585 109.85611226 21.26953125 100.44140625 C22.01976563 99.49394531 22.01976563 99.49394531 22.78515625 98.52734375 C35.10458341 83.02185785 55.15056272 72.32755415 73.76953125 66.69140625 C74.42091064 66.49256836 75.07229004 66.29373047 75.7434082 66.08886719 C77.90739679 65.47126574 80.07516413 64.94075597 82.26953125 64.44140625 C83.10637451 64.2501416 83.94321777 64.05887695 84.80541992 63.86181641 C96.59564462 61.62292852 108.63543491 62.22538783 120.58203125 62.31640625 C122.88345965 62.32645545 125.18489229 62.33557787 127.48632812 62.34375 C133.08082294 62.36561123 138.6751569 62.39893525 144.26953125 62.44140625 C144.26228027 61.71042725 144.2550293 60.97944824 144.24755859 60.22631836 C144.23909912 58.76850952 144.23909912 58.76850952 144.23046875 57.28125 C144.22321777 56.323396 144.2159668 55.36554199 144.20849609 54.37866211 C144.48470965 41.08616094 149.76736877 30.16548703 158.921875 20.62890625 C168.67476661 11.54135333 180.75613337 7.05712424 194.10546875 7.2890625 C206.91333622 8.19069938 219.10348454 13.68748424 227.95703125 23.06640625 C235.51367817 32.22225054 239.67556572 43.06464962 239.39453125 54.87890625 C239.38550781 55.61044922 239.37648438 56.34199219 239.3671875 57.09570312 C239.34389278 58.87774923 239.30803315 60.65962384 239.26953125 62.44140625 C239.84343597 62.43474442 240.4173407 62.42808258 241.00863647 62.42121887 C247.0776397 62.35393527 253.14653412 62.30922787 259.21582031 62.27661133 C261.46944494 62.26168772 263.72304138 62.24134154 265.9765625 62.21508789 C282.81409317 62.02409277 299.32605932 62.4260938 315.39453125 68.06640625 C316.12696045 68.31874023 316.85938965 68.57107422 317.61401367 68.83105469 C346.13613962 79.15586171 367.86434485 101.11550583 380.7734375 128.140625 C382.26953125 131.44140625 382.26953125 131.44140625 383.26953125 134.44140625 C386.23953125 134.77140625 389.20953125 135.10140625 392.26953125 135.44140625 C392.26953125 113.00140625 392.26953125 90.56140625 392.26953125 67.44140625 C389.29953125 66.45140625 386.32953125 65.46140625 383.26953125 64.44140625 C374.7720982 59.61085912 368.76407582 51.9085198 365.6796875 42.67578125 C363.6606664 31.67692347 364.8896709 21.56303594 370.7421875 12.046875 C376.06028083 4.46576324 383.3548651 -0.15890895 392.26953125 -2.55859375 C404.82084022 -3.62520696 414.47960861 -2.75414541 424.51953125 5.44140625 C431.03589657 11.6293878 435.78113556 20.035909 436.47265625 29.10546875 C436.65671301 40.73172104 434.1644003 49.64805397 426.26953125 58.44140625 C421.14936103 62.82433677 416.70780749 65.29531417 410.26953125 67.44140625 C409.93953125 89.88140625 409.60953125 112.32140625 409.26953125 135.44140625 C412.56953125 135.44140625 415.86953125 135.44140625 419.26953125 135.44140625 C426.35940096 137.30765502 430.49109634 141.18032167 434.2109375 147.35546875 C436.5812259 152.02607394 436.43765982 156.41334239 436.46240234 161.52758789 C436.47057983 162.45805939 436.47875732 163.38853088 436.48718262 164.34719849 C436.51202828 167.43197998 436.52855381 170.51671535 436.54296875 173.6015625 C436.54829243 174.65648832 436.5536161 175.71141415 436.5591011 176.79830742 C436.58583371 182.38595732 436.60520514 187.97358491 436.61962891 193.5612793 C436.63294954 198.17736712 436.66076784 202.79301096 436.70166016 207.40893555 C436.75108889 212.98861932 436.77576315 218.56790137 436.78285599 224.14779472 C436.78955217 226.26917338 436.80473139 228.39054366 436.8287468 230.51179695 C437.06390791 252.54699881 437.06390791 252.54699881 431.26953125 259.44140625 C425.96123272 264.31610367 421.90002428 266.59000029 414.58203125 266.50390625 C413.58816406 266.49488281 412.59429687 266.48585938 411.5703125 266.4765625 C410.81105469 266.46496094 410.05179687 266.45335937 409.26953125 266.44140625 C409.2852417 267.66021484 409.30095215 268.87902344 409.31713867 270.13476562 C409.37217643 274.73446829 409.40614488 279.33414304 409.43432617 283.93408203 C409.44924699 285.91036909 409.46959097 287.88662404 409.49584961 289.86279297 C409.86977771 318.76523587 403.6523241 342.78079306 383.26953125 364.44140625 C366.06592099 380.76496384 344.08353433 387.83932182 320.7265625 387.63671875 C319.47695236 387.63388885 318.22734222 387.63105896 316.93986511 387.62814331 C313.65688103 387.61891809 310.37410275 387.60102713 307.09118652 387.57873535 C303.72552984 387.55808213 300.35984274 387.54910045 296.99414062 387.5390625 C290.41919204 387.51712785 283.84437843 387.48374564 277.26953125 387.44140625 C276.9655542 388.38685303 276.66157715 389.3322998 276.34838867 390.30639648 C273.93100706 397.33097156 268.85506997 403.04092774 262.26953125 406.44140625 C253.14837034 409.7522032 244.09494876 409.87889524 234.53271484 409.77758789 C232.14126039 409.75387382 229.75091847 409.7570654 227.359375 409.76367188 C214.90529668 409.74169233 203.75695539 409.59806065 194.32421875 400.58203125 C188.03974065 393.79795028 185.07152728 386.72119214 185.26953125 377.44140625 C186.46796608 368.42405683 189.27835561 361.44865838 196.44921875 355.69140625 C204.0234853 350.38686941 210.4588662 349.12694467 219.56640625 349.10546875 C220.5552179 349.09881195 221.54402954 349.09215515 222.56280518 349.08529663 C224.65057524 349.07519657 226.73837741 349.07047879 228.82617188 349.07080078 C231.99534309 349.06643954 235.16310716 349.03012394 238.33203125 348.9921875 C240.36848487 348.98631616 242.40494504 348.98234889 244.44140625 348.98046875 C245.37716492 348.96609772 246.31292358 348.95172668 247.27703857 348.93692017 C254.93354569 348.98921895 261.58390524 350.79131867 267.85546875 355.30078125 C268.74105469 356.23664063 268.74105469 356.23664063 269.64453125 357.19140625 C270.25039063 357.805 270.85625 358.41859375 271.48046875 359.05078125 C273.09135287 361.20331636 274.20358023 363.18899101 275.38134766 365.59082031 C275.73645416 366.31174866 276.09156067 367.032677 276.45742798 367.77545166 C276.72542206 368.32521667 276.99341614 368.87498169 277.26953125 369.44140625 C284.97001648 369.54375987 292.67032299 369.61326772 300.37133789 369.66113281 C302.98501135 369.68111034 305.59864091 369.70830182 308.2121582 369.74316406 C333.89580708 370.07690917 353.10116403 367.37731973 372.609375 349.26953125 C386.05633015 335.56972737 391.23127229 317.2998202 391.5859375 298.5703125 C391.61710915 297.18681862 391.61710915 297.18681862 391.64891052 295.77537537 C391.71388763 292.85162242 391.77304809 289.92778564 391.83203125 287.00390625 C391.87526586 285.01236139 391.91888167 283.02082477 391.96289062 281.02929688 C392.06951532 276.16675088 392.17092628 271.30412121 392.26953125 266.44140625 C389.29953125 266.44140625 386.32953125 266.44140625 383.26953125 266.44140625 C382.80546875 268.17390625 382.80546875 268.17390625 382.33203125 269.94140625 C378.26730244 282.04017651 370.84231822 293.11057542 362.26953125 302.44140625 C361.82770508 302.92561035 361.38587891 303.40981445 360.93066406 303.90869141 C342.52707593 323.8555171 317.5907869 337.21836054 290.26953125 339.44140625 C285.13210628 339.58443335 279.99625191 339.56800241 274.85742188 339.55493164 C273.29961143 339.55464924 271.74180085 339.55480854 270.18399048 339.55537415 C265.97384291 339.55566004 261.76372406 339.54979697 257.55358315 339.54280019 C253.14668551 339.53653198 248.73978715 339.53596011 244.33288574 339.53477478 C235.99622714 339.53167167 227.65958172 339.52347206 219.32292891 339.51342529 C209.82836719 339.50223243 200.33380484 339.49674571 190.83923817 339.49172986 C171.31599507 339.48128858 151.79276422 339.46370894 132.26953125 339.44140625 C132.26953125 341.42140625 132.26953125 343.40140625 132.26953125 345.44140625 C133.17574219 345.40660156 134.08195313 345.37179687 135.015625 345.3359375 C143.79082064 345.14093315 151.36396925 345.26442663 158.58203125 350.69140625 C164.00809598 356.24365853 166.38438934 361.83710372 166.40997314 369.56938171 C166.41568329 370.60522903 166.42139343 371.64107635 166.42727661 372.70831299 C166.4289534 374.40476959 166.4289534 374.40476959 166.43066406 376.13549805 C166.43562897 377.33106827 166.44059387 378.52663849 166.44570923 379.75843811 C166.45780679 383.03556632 166.46527349 386.31265887 166.46971989 389.58980536 C166.47265567 391.64021881 166.47676149 393.69062672 166.48122406 395.74103737 C166.49489413 402.1648257 166.50456236 408.58860132 166.50842595 415.01240319 C166.51290128 422.41148991 166.53042665 429.81039139 166.55942655 437.20942181 C166.58109709 442.93868657 166.59113314 448.66789942 166.59246707 454.3972047 C166.59351155 457.81414312 166.59934236 461.23090732 166.61728668 464.64780235 C166.63438502 468.4654572 166.63245713 472.28266395 166.62597656 476.1003418 C166.63519135 477.22119171 166.64440613 478.34204163 166.65390015 479.49685669 C166.6082362 488.1058325 165.60605994 496.10487756 159.26953125 502.44140625 C153.47922425 506.69550935 149.40446011 507.59027483 142.36982727 507.58857727 C141.55619805 507.59225396 140.74256883 507.59593065 139.90428418 507.59971875 C137.16836085 507.61076264 134.43247549 507.61460063 131.6965332 507.6184082 C129.73865132 507.62467234 127.78077062 507.6313191 125.82289124 507.63832092 C120.49625946 507.65573563 115.16963667 507.66628409 109.84298348 507.67452645 C106.51532285 507.67967588 103.187665 507.68575165 99.86000633 507.69203758 C89.44931877 507.71109144 79.03863831 507.72532187 68.62793666 507.73364955 C56.60924586 507.74342206 44.59073924 507.76974124 32.57211334 507.81015044 C23.28368037 507.84030873 13.99530021 507.85511818 4.70681924 507.85843056 C-0.84125008 507.86078146 -6.3891227 507.86974711 -11.93713951 507.89489174 C-17.15825518 507.91817217 -22.37904463 507.92240569 -27.60019875 507.91213036 C-29.51418264 507.91163487 -31.42818258 507.91795893 -33.34211731 507.9316864 C-35.96041654 507.94941168 -38.57754583 507.94229633 -41.19584656 507.92915344 C-42.32510741 507.94560731 -42.32510741 507.94560731 -43.47718161 507.96239358 C-50.44280607 507.8782984 -55.6208807 505.5509943 -60.54296875 500.62890625 C-65.7509516 493.04013124 -66.17000006 487.18088404 -66.13452148 478.13134766 C-66.14138474 476.90607864 -66.14824799 475.68080963 -66.15531921 474.41841125 C-66.17044034 471.07309791 -66.1720933 467.72834389 -66.16637683 464.38303804 C-66.16327586 461.58255119 -66.16938762 458.78211423 -66.17541558 455.9816345 C-66.18944056 449.37020071 -66.18791703 442.75889618 -66.17651367 436.14746094 C-66.16503967 429.34509924 -66.17910032 422.54313214 -66.20591015 415.74082243 C-66.22812208 409.88408542 -66.23469206 404.02747177 -66.22883373 398.17069566 C-66.22547538 394.68000165 -66.22780361 391.1895604 -66.24508476 387.69890213 C-66.26353412 383.80253089 -66.24931035 379.90663855 -66.23217773 376.01025391 C-66.2418457 374.86606491 -66.25151367 373.72187592 -66.26147461 372.54301453 C-66.19240774 365.02222281 -65.25694548 358.36514456 -60.06836605 352.59206581 C-53.12593038 345.92173936 -45.28705393 345.00225839 -36.08276367 345.13598633 C-35.04587906 345.13864502 -34.00899445 345.14130371 -32.94068909 345.14404297 C-30.70032692 345.15097167 -28.45997724 345.16435633 -26.21968651 345.18354225 C-22.66631855 345.21128587 -19.11360368 345.21607174 -15.56013489 345.21403503 C-5.46100044 345.21051197 4.63769194 345.23348549 14.73657227 345.30737305 C20.92524876 345.35102214 27.1129491 345.35558486 33.30173302 345.33579063 C35.65115748 345.33588784 38.00063129 345.35065579 40.34986305 345.38074684 C56.74734435 345.98067819 56.74734435 345.98067819 70.62406921 338.35527039 C72.32436723 336.53506479 72.32436723 336.53506479 73.26953125 334.44140625 C72.42648438 334.34085937 71.5834375 334.2403125 70.71484375 334.13671875 C66.89472644 333.36576537 63.62789246 331.99912371 60.14453125 330.31640625 C59.48710937 330.00074707 58.8296875 329.68508789 58.15234375 329.35986328 C56.18368903 328.40176558 54.22514056 327.42582113 52.26953125 326.44140625 C51.24085937 325.92578125 50.2121875 325.41015625 49.15234375 324.87890625 C28.17756527 313.51046263 11.27791307 293.40175336 2.26953125 271.44140625 C1.91855104 269.77836633 1.5830118 268.11192079 1.26953125 266.44140625 C0.19058594 266.46235352 -0.88835937 266.48330078 -2 266.50488281 C-6.03290343 266.57771049 -10.06574965 266.62336009 -14.09912109 266.66113281 C-15.83912964 266.68115147 -17.57907174 266.70837511 -19.31884766 266.74316406 C-21.83122221 266.79211577 -24.3427015 266.81447212 -26.85546875 266.83203125 C-27.6235083 266.85267639 -28.39154785 266.87332153 -29.18286133 266.89459229 C-35.67805945 266.89724353 -40.81398817 264.95813756 -45.75390625 260.6953125 C-46.19992188 260.13714844 -46.6459375 259.57898438 -47.10546875 259.00390625 C-47.56695312 258.44832031 -48.0284375 257.89273437 -48.50390625 257.3203125 C-51.99914741 251.96613735 -52.02727635 247.11553636 -52.02099609 240.9128418 C-52.03107193 239.48261688 -52.03107193 239.48261688 -52.04135132 238.02349854 C-52.06033112 234.8749875 -52.06425562 231.72668967 -52.06640625 228.578125 C-52.0728345 226.38483086 -52.07956288 224.19153758 -52.08657837 221.99824524 C-52.09855132 217.40090955 -52.1022592 212.80364901 -52.10107422 208.20629883 C-52.1008711 202.32512912 -52.1281658 196.44444303 -52.16261864 190.56338787 C-52.1848942 186.03281964 -52.18891154 181.50236764 -52.18785477 176.97175026 C-52.19021001 174.80408882 -52.19902919 172.63642413 -52.2145195 170.46881676 C-52.23419094 167.43158833 -52.22833634 164.39540072 -52.21630859 161.3581543 C-52.22754761 160.46904861 -52.23878662 159.57994293 -52.25036621 158.66389465 C-52.18214951 151.85950379 -50.4452368 146.65202235 -46.01953125 141.41796875 C-38.74796628 135.51195588 -34.66007351 135.44140625 -24.73046875 135.44140625 C-24.73046875 113.00140625 -24.73046875 90.56140625 -24.73046875 67.44140625 C-27.70046875 66.45140625 -30.67046875 65.46140625 -33.73046875 64.44140625 C-41.63111757 59.99968446 -47.93065415 53.04257745 -51.03515625 44.51171875 C-53.63694835 33.02290644 -52.43749054 22.08251323 -46.2578125 12.05078125 C-36.39191237 -2.0366979 -15.69945124 -7.67588161 0 0 Z " fill="#000101" transform="translate(70.73046875,3.55859375)"/>
<path d="M0 0 C0.80549986 -0.00508782 1.61099972 -0.01017564 2.44090867 -0.01541764 C5.11402633 -0.03099193 7.78711726 -0.03962713 10.46026611 -0.04811096 C12.38808863 -0.05766187 14.31590948 -0.06755355 16.24372864 -0.07775879 C22.55449421 -0.10901035 28.8652724 -0.1294002 35.17608643 -0.14796448 C36.79255805 -0.15291046 36.79255805 -0.15291046 38.44168568 -0.15795636 C48.62593587 -0.18873852 58.8101893 -0.21541502 68.9944725 -0.23237514 C81.96512392 -0.25423792 94.93535925 -0.29613756 107.90584445 -0.36581272 C117.0561697 -0.41327528 126.20638359 -0.43733842 135.35682797 -0.44457203 C140.80641351 -0.4494957 146.25552888 -0.46426042 151.70497894 -0.50431633 C156.84342722 -0.54159022 161.98114468 -0.54946084 167.11970329 -0.5363102 C168.98793675 -0.53636348 170.85620607 -0.54638187 172.72431374 -0.56806183 C196.5161017 -0.82902787 217.80051679 6.28133226 236.50421143 21.16062927 C237.18741455 21.6788324 237.87061768 22.19703552 238.57452393 22.73094177 C256.04336283 36.80502655 267.83637848 60.10997627 270.50421143 82.16062927 C270.60228716 84.77240183 270.66111373 87.3580299 270.66534424 89.96922302 C270.67030914 90.71668289 270.67527405 91.46414276 270.6803894 92.23425293 C270.69490223 94.68888805 270.70179686 97.14345842 270.70733643 99.59812927 C270.7101638 100.44455994 270.71299118 101.2909906 270.71590424 102.16307068 C270.73085727 106.64777432 270.74010966 111.13244616 270.7444458 115.61717224 C270.74990634 120.20837302 270.77389419 124.79927364 270.80241776 129.39038086 C270.82121363 132.95614926 270.82625878 136.52184803 270.82778168 140.08766174 C270.83077369 141.77784352 270.83868251 143.46802513 270.85196686 145.15815735 C271.05638604 173.17910722 262.16131431 196.80125039 242.50421143 217.16062927 C227.60083283 231.60799351 209.74984927 239.62889023 189.50421143 243.16062927 C188.57794889 243.33579795 187.65168636 243.51096663 186.69735527 243.69144344 C183.38047289 244.17881084 180.2499498 244.28359989 176.89828491 244.28088379 C175.58584305 244.28225845 174.27340118 244.28363312 172.92118835 244.28504944 C171.47897316 244.28151095 170.03675819 244.27787615 168.59454346 244.27415466 C167.06658429 244.2738724 165.53862498 244.27403128 164.01066589 244.27459717 C159.87271147 244.27488363 155.73478614 244.26901124 151.59683847 244.26202321 C147.26867222 244.2557646 142.94050528 244.25518389 138.61233521 244.2539978 C130.42081537 244.25089188 122.2293089 244.24268845 114.03779495 244.23264831 C104.71014467 244.22146423 95.38249374 244.21597094 86.05483842 244.21095288 C66.87128851 244.20050522 47.68775104 244.18292009 28.50421143 244.16062927 C28.44813721 242.4803363 28.44813721 242.4803363 28.39093018 240.76609802 C28.32526885 239.29340837 28.25882156 237.82075361 28.19171143 236.34812927 C28.16915283 235.61014099 28.14659424 234.87215271 28.12335205 234.11180115 C27.93308931 229.91676127 27.93308931 229.91676127 26.18756104 226.18479919 C23.05348196 224.27798821 19.95584007 224.40687714 16.50421143 225.16062927 C13.19966829 226.86987572 10.36049836 229.0532052 7.44171143 231.34812927 C6.67794189 231.9262738 5.91417236 232.50441833 5.1272583 233.1000824 C2.25015399 235.27821526 -0.61555283 237.46978357 -3.45428467 239.69773865 C-7.85524832 243.03892662 -7.85524832 243.03892662 -10.83953857 243.60594177 C-35.29348724 239.97328998 -58.33168112 226.00142426 -73.25238037 206.37425232 C-87.43632087 187.08313863 -92.83392765 165.42292204 -92.76141357 141.72312927 C-92.76276464 140.15094442 -92.76470882 138.57875998 -92.76721191 137.00657654 C-92.77014245 133.72878499 -92.76593282 130.45110325 -92.75653076 127.17332458 C-92.74513747 123.00114192 -92.75170813 118.82921671 -92.76367569 114.65704346 C-92.77095062 111.4156963 -92.7685807 108.17440878 -92.7634201 104.93305969 C-92.76209913 103.39588896 -92.76367596 101.85871257 -92.76837921 100.32154846 C-92.78889449 91.73512275 -92.40306718 83.56167725 -90.49578857 75.16062927 C-90.30758545 74.13711365 -90.11938232 73.11359802 -89.92547607 72.05906677 C-84.53412136 47.53219955 -68.20222643 26.73790106 -47.36199951 13.29490662 C-32.7466314 4.41173024 -17.02624564 0.02737804 0 0 Z " fill="#63B4F5" transform="translate(173.49578857421875,82.83937072753906)"/>
<path d="M0 0 C0.0093457 0.88260498 0.01869141 1.76520996 0.02832031 2.67456055 C0.07246114 5.96456672 0.13412676 9.25329074 0.20751953 12.54272461 C0.23566014 13.96350192 0.25690908 15.38443378 0.27099609 16.80541992 C0.29252394 18.85415359 0.33921514 20.901043 0.390625 22.94921875 C0.41157227 24.17987061 0.43251953 25.41052246 0.45410156 26.6784668 C1.10569192 30.64308526 2.01632853 32.32077844 5 35 C7.83428125 35.72673516 7.83428125 35.72673516 10.97265625 35.6015625 C12.11927734 35.61703125 13.26589844 35.6325 14.44726562 35.6484375 C15.64029297 35.64070313 16.83332031 35.63296875 18.0625 35.625 C20.42842125 35.625 22.79438484 35.63743592 25.16015625 35.6640625 C26.20824463 35.65842285 27.25633301 35.6527832 28.33618164 35.64697266 C31 36 31 36 32.64225864 37.20893097 C34.44432718 39.58613567 34.37966915 41.04174157 34.38768005 44.01013184 C34.39758469 45.0448613 34.40748932 46.07959076 34.41769409 47.14567566 C34.41319244 48.28031754 34.4086908 49.41495941 34.40405273 50.58398438 C34.41091599 51.77929276 34.41777924 52.97460114 34.42485046 54.20613098 C34.44003064 57.48508755 34.4416085 60.7636885 34.43590808 64.04266548 C34.43282067 66.77889931 34.43890357 69.51508148 34.44494683 72.25130796 C34.45899936 78.7051799 34.45742443 85.15891948 34.44604492 91.61279297 C34.43455896 98.27432029 34.44864533 104.93544524 34.4754414 111.59691954 C34.49757961 117.31420592 34.50424018 123.03136582 34.49836498 128.74869204 C34.4949901 132.16436173 34.49744534 135.57977339 34.51461601 138.9954071 C34.52943107 142.80258457 34.5189179 146.6088669 34.50170898 150.41601562 C34.51621094 152.11797844 34.51621094 152.11797844 34.53100586 153.85432434 C34.52117172 154.8890538 34.51133759 155.92378326 34.50120544 156.98986816 C34.50099616 157.89025063 34.50078688 158.79063309 34.50057125 159.71829987 C34 162 34 162 32.45024967 163.78848267 C29.08176711 165.45401702 25.97113577 165.42128552 22.2947998 165.39440918 C21.51424587 165.40050028 20.73369193 165.40659139 19.92948484 165.41286707 C17.31156635 165.42952852 14.69413257 165.42471688 12.07617188 165.41992188 C10.20031731 165.4272603 8.32446728 165.43584587 6.44862366 165.44558716 C1.35160719 165.46783357 -3.74524778 165.47073234 -8.84230614 165.46883965 C-13.09454111 165.46872011 -17.34674166 165.47727715 -21.59896708 165.48561716 C-31.62801305 165.5048618 -41.65697578 165.50773088 -51.68603516 165.50097656 C-62.04036438 165.49433171 -72.39433773 165.51721563 -82.74859476 165.55429029 C-91.63276176 165.58494961 -100.51681405 165.59635151 -109.40103292 165.59245348 C-114.70977079 165.59038241 -120.01823167 165.59592067 -125.32691956 165.62034607 C-130.31749478 165.64254897 -135.30748962 165.64078936 -140.29806709 165.62041855 C-142.13148508 165.61699724 -143.96494167 165.62214559 -145.79830742 165.63640213 C-148.29782175 165.6545005 -150.79534721 165.64191794 -153.2947998 165.62145996 C-154.38798672 165.64023673 -154.38798672 165.64023673 -155.50325823 165.65939283 C-159.13404018 165.59549755 -160.72316218 165.25066475 -163.4498291 162.78178501 C-165.10087683 159.81897631 -165.50215036 158.226425 -165.50793457 154.86997986 C-165.51921387 153.85918869 -165.53049316 152.84839752 -165.54211426 151.80697632 C-165.53401733 150.70914825 -165.52592041 149.61132019 -165.51757812 148.48022461 C-165.5245874 147.31549118 -165.53159668 146.15075775 -165.53881836 144.95072937 C-165.55642265 141.10102496 -165.54476681 137.25205563 -165.53125 133.40234375 C-165.53394401 130.72863347 -165.53781943 128.05494553 -165.54284668 125.38124084 C-165.55011779 119.77841218 -165.54054863 114.17579464 -165.52148438 108.57299805 C-165.49970575 102.09774498 -165.50677586 95.62299552 -165.52879 89.14775461 C-165.54694683 83.58411156 -165.54950135 78.02062003 -165.53903532 72.45695692 C-165.53280317 69.13574124 -165.53353033 65.81481393 -165.54518127 62.49360466 C-165.55531693 58.79218137 -165.53988613 55.09173147 -165.51757812 51.39038086 C-165.52567505 50.29052856 -165.53377197 49.19067627 -165.54211426 48.05749512 C-165.53083496 47.04952377 -165.51955566 46.04155243 -165.50793457 45.0030365 C-165.50642647 44.1282965 -165.50491837 43.2535565 -165.50336456 42.35230923 C-164.8185955 39.15226555 -163.58084269 37.96298382 -161 36 C-158.81897354 35.52291775 -158.81897354 35.52291775 -156.41265869 35.55503845 C-155.49631149 35.5570224 -154.57996429 35.55900635 -153.635849 35.56105042 C-152.63743484 35.58336227 -151.63902069 35.60567413 -150.61035156 35.62866211 C-149.02405693 35.63965942 -149.02405693 35.63965942 -147.40571594 35.65087891 C-145.10685836 35.6683439 -142.80805403 35.69444255 -140.50937653 35.72810173 C-136.8582762 35.77778394 -133.20823702 35.79674534 -129.55682373 35.80628967 C-119.17451001 35.83631978 -108.79310648 35.90022824 -98.41162109 36.03735352 C-92.05886125 36.11906337 -85.70773905 36.14625514 -79.35448456 36.14007759 C-76.94488898 36.14817224 -74.53526624 36.17638088 -72.1261673 36.2259655 C-57.11858349 36.52747287 -46.9718076 35.47401152 -35.48807621 25.29821491 C-33.44925018 23.51951948 -31.25686098 21.99748218 -29.02734375 20.46875 C-27.66262605 19.48114859 -26.29930285 18.49161683 -24.9375 17.5 C-24.20217041 16.96737549 -23.46684082 16.43475098 -22.70922852 15.88598633 C-18.9822785 13.18279604 -15.26734954 10.46386463 -11.5625 7.73046875 C-10.51848022 6.96089844 -10.51848022 6.96089844 -9.45336914 6.17578125 C-8.13566138 5.20294045 -6.81966607 4.22777471 -5.50561523 3.25 C-1.10945345 0 -1.10945345 0 0 0 Z " fill="#FED92C" transform="translate(186,330)"/>
<path d="M0 0 C1.08740479 -0.00700928 2.17480957 -0.01401855 3.29516602 -0.02124023 C6.86704528 -0.03875385 10.43812332 -0.0272195 14.01000977 -0.01367188 C16.5066798 -0.01636887 19.00334881 -0.02025302 21.50001526 -0.02526855 C27.39175406 -0.03190694 33.28320537 -0.01796865 39.17490202 0.00333452 C43.85841687 0.01834495 48.54159532 0.01304366 53.22509766 -0.00390625 C59.70650498 -0.02715557 66.18758861 -0.03069891 72.66902351 -0.01768494 C75.13087097 -0.01502628 77.59273237 -0.01825693 80.05456352 -0.02760315 C83.5028884 -0.03782195 86.95018845 -0.02219123 90.3984375 0 C91.40497879 -0.00809692 92.41152008 -0.01619385 93.44856262 -0.02453613 C101.37599992 0.0694336 108.10232442 1.85042993 114.56860352 6.56054688 C121.31338172 13.54711902 124.88264968 19.09992097 125.26391602 28.95507812 C124.93161745 38.15224486 122.00309872 45.13481184 115.68579102 51.83007812 C107.85689765 58.70422839 98.24877966 59.81709076 88.24560547 59.82397461 C86.69290703 59.83645988 86.69290703 59.83645988 85.10884094 59.84919739 C81.69825437 59.87322494 78.28785941 59.88206141 74.87719727 59.88867188 C72.49456223 59.89764475 70.11192775 59.90676671 67.72929382 59.91603088 C62.73699579 59.93250452 57.74476467 59.94021787 52.75244141 59.94311523 C46.3784099 59.94849262 40.00501401 59.98615417 33.63116169 60.0318594 C28.70926153 60.06171213 23.78751281 60.06884061 18.86553001 60.06984138 C16.51695029 60.07402848 14.16836948 60.08640148 11.81987953 60.10735893 C-14.85266901 60.3264077 -14.85266901 60.3264077 -25.73608398 50.83007812 C-32.57843544 43.16094254 -33.99406554 35.27298787 -33.67749023 25.14257812 C-32.67312285 16.89432211 -28.87209025 11.43742703 -22.68920898 6.08789062 C-15.20117264 1.29459347 -8.83406608 -0.07092128 0 0 Z " fill="#020303" transform="translate(217.236083984375,236.482421875)"/>
<path d="M0 0 C11.67683568 6.65562784 19.30091973 16.12694587 23.64453125 28.89453125 C25.79297973 41.61995686 23.89114647 54.52437928 16.75 65.375 C9.72447159 74.55423162 -0.21158749 82.41442405 -12 84 C-26.31484445 85.16121454 -37.65055608 83.4080531 -48.97265625 73.8671875 C-56.58690875 66.85444628 -63.10534027 57.78691754 -64.19287109 47.10571289 C-64.73854736 32.65852035 -63.15744541 21.08295297 -53 10 C-39.24833858 -4.39753201 -18.17212803 -8.99321372 0 0 Z " fill="#020303" transform="translate(192,130)"/>
<path d="M0 0 C10.76940398 7.03461068 18.43717903 16.86083954 21.625 29.47265625 C23.70135385 43.46641608 20.45667159 55.7783901 12.3671875 67.33203125 C5.51665579 75.66418958 -4.2998056 82.01533295 -15.15283203 83.24365234 C-28.42040886 84.2273543 -39.52933996 82.33553628 -50.125 73.7265625 C-56.06522431 68.25660595 -61.03868647 62.57920343 -64 55 C-64.35578125 54.14277344 -64.7115625 53.28554687 -65.078125 52.40234375 C-67.6930727 42.7514139 -67.83389087 29.00819007 -63.26171875 19.9921875 C-61.02640083 16.46273815 -58.73492025 13.16431595 -56 10 C-55.48695313 9.39285156 -54.97390625 8.78570312 -54.4453125 8.16015625 C-40.75978886 -6.80224639 -17.49562892 -9.84427077 0 0 Z " fill="#020303" transform="translate(376,131)"/>
<path d="M0 0 C4.31142281 3.60431018 6.25248033 8.06781041 8.5625 13.0625 C9.15901367 14.33915527 9.15901367 14.33915527 9.76757812 15.64160156 C14.72347699 26.4728381 17.14176637 36.85504688 17.16113281 48.80859375 C17.16609772 49.55605362 17.17106262 50.30351349 17.17617798 51.07362366 C17.1906908 53.52825877 17.19758544 55.98282915 17.203125 58.4375 C17.20736607 59.707146 17.20736607 59.707146 17.21169281 61.00244141 C17.22664584 65.48714505 17.23589823 69.97181688 17.24023438 74.45654297 C17.24569491 79.04774375 17.26968276 83.63864437 17.29820633 88.22975159 C17.3170022 91.79551999 17.32204736 95.36121875 17.32357025 98.92703247 C17.32656226 100.61721425 17.33447109 102.30739585 17.34775543 103.99752808 C17.55217461 132.01847795 8.65710288 155.64062112 -11 176 C-25.9033786 190.44736423 -43.75436215 198.46826095 -64 202 C-64.92626253 202.17516868 -65.85252506 202.35033735 -66.80685616 202.53081417 C-70.12373853 203.01818157 -73.25426163 203.12297061 -76.60592651 203.12025452 C-77.91836838 203.12162918 -79.23081024 203.12300385 -80.58302307 203.12442017 C-82.02523827 203.12088167 -83.46745323 203.11724687 -84.90966797 203.11352539 C-86.43762714 203.11324313 -87.96558644 203.11340201 -89.49354553 203.1139679 C-93.63149995 203.11425436 -97.76942528 203.10838197 -101.90737295 203.10139394 C-106.2355392 203.09513533 -110.56370614 203.09455462 -114.89187622 203.09336853 C-123.08339606 203.09026261 -131.27490252 203.08205918 -139.46641648 203.07201904 C-148.79406676 203.06083496 -158.12171769 203.05534167 -167.44937301 203.05032361 C-186.63292313 203.03987595 -205.81646 203.02208897 -225 203 C-225 199.04 -225 195.08 -225 191 C-223.31696274 190.99413376 -221.63392548 190.98826752 -219.89988708 190.98222351 C-203.99630833 190.92487428 -188.0928752 190.85222294 -172.18943691 190.76428509 C-164.01440667 190.71946833 -155.83941862 190.6800218 -147.66430664 190.65356445 C-140.53240434 190.63046927 -133.40063716 190.59694466 -126.26884228 190.55129844 C-122.49847246 190.52752018 -118.72823517 190.50869128 -114.95779228 190.50238609 C-111.39624429 190.49626455 -107.83503474 190.47601629 -104.27361298 190.44572449 C-102.36928265 190.43297704 -100.46487279 190.43449469 -98.5605011 190.4367218 C-71.80378809 190.15080796 -48.04922792 180.32706985 -28 163 C-27.24074219 162.34386719 -26.48148438 161.68773437 -25.69921875 161.01171875 C-8.32772693 144.75423041 3.06431809 119.72522741 4.18714905 96.0546875 C4.28722589 91.5287451 4.27864125 87.00334516 4.265625 82.4765625 C4.26697642 80.80089258 4.2689209 79.12522304 4.27142334 77.44955444 C4.27435382 73.95493804 4.27014548 70.46042463 4.26074219 66.96582031 C4.24936675 62.52604753 4.25590835 58.08651717 4.26788712 53.64675331 C4.27517741 50.1908288 4.27278492 46.73496002 4.26763153 43.27903366 C4.26631384 41.64386337 4.26787535 40.00868773 4.27259064 38.37352371 C4.30216538 25.23661347 3.0942937 12.81921677 0 0 Z " fill="#41A2F0" transform="translate(427,124)"/>
<path d="M0 0 C0.90280701 -0.00571014 1.80561401 -0.01142029 2.73577881 -0.01730347 C3.72904175 -0.01842133 4.72230469 -0.01953918 5.7456665 -0.02069092 C7.31172638 -0.02813828 7.31172638 -0.02813828 8.90942383 -0.03573608 C12.37600353 -0.05038459 15.84253745 -0.05716469 19.30914307 -0.06268311 C21.71329754 -0.06843297 24.117452 -0.07419072 26.52160645 -0.07995605 C31.56895156 -0.09047412 36.61628071 -0.09631131 41.66363525 -0.09979248 C48.13126575 -0.10527456 54.59868544 -0.12929328 61.06624985 -0.15776443 C66.03508113 -0.17638993 71.00386167 -0.18159641 75.97272491 -0.18312836 C78.35694784 -0.18615632 80.74116985 -0.19418964 83.12535858 -0.20731354 C86.46249906 -0.22436944 89.79912511 -0.22249447 93.1362915 -0.21600342 C94.12145752 -0.2252182 95.10662354 -0.23443298 96.12164307 -0.243927 C101.39884345 -0.21177519 105.16245447 0.13237227 109.69976807 3.14044189 C112.50145765 6.38450352 113.60413557 8.3753819 114.13726807 12.64044189 C113.4876618 17.83729203 112.03634605 20.93426176 108.13726807 24.45294189 C104.93374296 26.67076697 103.31715438 27.26634955 99.48219299 27.28761292 C98.59765945 27.29476822 97.71312592 27.30192352 96.80178833 27.30929565 C95.3423027 27.31332901 95.3423027 27.31332901 93.85333252 27.31744385 C92.31894279 27.32730064 92.31894279 27.32730064 90.7535553 27.33735657 C87.35671928 27.35712187 83.95992757 27.36876023 80.56304932 27.37872314 C79.40416891 27.38279867 78.24528851 27.3868742 77.05129051 27.39107323 C70.91597038 27.41194912 64.7806727 27.42624349 58.64532471 27.43560791 C52.30776279 27.44666717 45.9705525 27.48105756 39.63311481 27.52077961 C34.76117806 27.54692907 29.88932521 27.55529836 25.01732445 27.55888939 C22.6813641 27.56376072 20.34540764 27.57539015 18.00951576 27.59392738 C14.73711983 27.61827929 11.46563511 27.61736043 8.19317627 27.6104126 C6.74887238 27.62962769 6.74887238 27.62962769 5.27539062 27.64923096 C-0.78498095 27.60240191 -4.33080069 26.66556689 -9.30023193 23.14044189 C-12.68224229 19.43114021 -12.91955156 15.50146129 -12.79632568 10.65216064 C-11.96813031 6.45901401 -9.49786218 3.84931518 -6.30023193 1.14044189 C-3.96676828 -0.02628993 -2.59961472 0.00982848 0 0 Z " fill="#EAEFF2" transform="translate(212.30023193359375,252.85955810546875)"/>
<path d="M0 0 C4.56216465 -0.14532035 9.12373362 -0.23408477 13.6875 -0.3125 C15.62786133 -0.3753418 15.62786133 -0.3753418 17.60742188 -0.43945312 C19.47817383 -0.46362305 19.47817383 -0.46362305 21.38671875 -0.48828125 C23.10701294 -0.52755737 23.10701294 -0.52755737 24.86206055 -0.56762695 C29.11330589 0.20138771 30.35532166 1.60924065 33 5 C33.49440058 8.07300675 33.68548737 10.58961483 33.64697266 13.65820312 C33.65573425 14.51896957 33.66449585 15.37973602 33.67352295 16.2665863 C33.69548812 19.10532382 33.68097474 21.94249729 33.6640625 24.78125 C33.66743147 26.7575307 33.67228476 28.73380939 33.67855835 30.71008301 C33.68592577 34.8494034 33.67522826 38.98818384 33.65185547 43.12744141 C33.6233679 48.43070707 33.63977256 53.73270757 33.66971779 59.03592682 C33.68779421 63.11608394 33.68203112 67.1959416 33.66907883 71.27610779 C33.66574577 73.23131968 33.66982835 75.18655885 33.68147659 77.14173889 C33.69419097 79.87582301 33.67480089 82.60786473 33.64697266 85.34179688 C33.65709381 86.148181 33.66721497 86.95456512 33.67764282 87.78538513 C33.60124508 91.8412595 33.18011038 93.7690793 30.65568542 97.00566101 C27.32223683 99.50897953 25.52146125 99.58268176 21.38671875 99.48828125 C20.13955078 99.47216797 18.89238281 99.45605469 17.60742188 99.43945312 C16.31384766 99.39755859 15.02027344 99.35566406 13.6875 99.3125 C12.37458984 99.28994141 11.06167969 99.26738281 9.70898438 99.24414062 C6.4714987 99.18527725 3.23633 99.10308804 0 99 C0.07068632 98.44677315 0.14137264 97.8935463 0.21420097 97.32355499 C0.84561087 92.0853694 1.1444088 86.95858089 1.12939453 81.68554688 C1.13114685 80.90865005 1.13289917 80.13175323 1.13470459 79.33131409 C1.13906277 76.79376919 1.13620657 74.25629546 1.1328125 71.71875 C1.13348727 69.93713365 1.13445874 68.1555174 1.13571167 66.37390137 C1.13718047 62.65209063 1.13506045 58.93030401 1.13037109 55.20849609 C1.12467432 50.45769074 1.12795771 45.7069419 1.13394356 40.95613861 C1.13757128 37.28081849 1.13640044 33.60551158 1.13381577 29.93019104 C1.13315261 28.17924493 1.13395336 26.42829758 1.13629532 24.67735291 C1.13885832 22.22302102 1.13493035 19.76877843 1.12939453 17.31445312 C1.13141876 16.60354019 1.13344299 15.89262726 1.13552856 15.16017151 C1.11438379 10.05427478 0.64692736 5.06318028 0 0 Z " fill="#8B9AA6" transform="translate(458,155)"/>
<path d="M0 0 C1.94326172 0.01933594 1.94326172 0.01933594 3.92578125 0.0390625 C5.28907324 0.07248134 6.65235449 0.10634109 8.015625 0.140625 C9.39450564 0.16069793 10.77341412 0.17894733 12.15234375 0.1953125 C15.52414244 0.24247052 18.89453187 0.30827962 22.265625 0.390625 C22.1239238 1.06372711 21.9822226 1.73682922 21.83622742 2.43032837 C20.13956546 11.33697742 19.98960239 20.01909829 20.03515625 29.0390625 C20.03635252 30.62505048 20.03680027 32.21103918 20.0365448 33.79702759 C20.03809843 37.10333771 20.04629877 40.40953785 20.05981445 43.71582031 C20.07677418 47.91340277 20.08062872 52.11086468 20.07986927 56.3084774 C20.08014378 59.57910268 20.08566995 62.84970262 20.09287071 66.12031937 C20.09601035 67.66617263 20.09801351 69.21202871 20.09876442 70.75788498 C20.10852926 80.35176586 20.44069157 89.82579722 21.265625 99.390625 C16.682375 99.50185711 12.099807 99.57782799 7.515625 99.640625 C6.21367188 99.67414063 4.91171875 99.70765625 3.5703125 99.7421875 C2.31992187 99.75507813 1.06953125 99.76796875 -0.21875 99.78125 C-1.37084961 99.80219727 -2.52294922 99.82314453 -3.70996094 99.84472656 C-6.734375 99.390625 -6.734375 99.390625 -8.89105225 97.90875244 C-11.52294055 94.3133809 -11.29376757 90.93410339 -11.25195312 86.64648438 C-11.2589624 85.76475052 -11.26597168 84.88301666 -11.27319336 83.9745636 C-11.29079421 81.06084675 -11.2791432 78.14810167 -11.265625 75.234375 C-11.26831931 73.20943007 -11.27220122 71.1844864 -11.27722168 69.1595459 C-11.28311956 64.91597168 -11.27454431 60.67273428 -11.25585938 56.42919922 C-11.2330698 50.98808737 -11.24619131 45.54776471 -11.27014923 40.10668182 C-11.28459928 35.92537483 -11.28000483 31.74425512 -11.26963806 27.5629425 C-11.26696859 25.55666511 -11.27024827 23.55037074 -11.27955627 21.54411316 C-11.2897087 18.74053876 -11.27423917 15.9382446 -11.25195312 13.13476562 C-11.26005005 12.3045137 -11.26814697 11.47426178 -11.27648926 10.61885071 C-11.22325195 7.00620026 -11.05627926 4.83174514 -8.89678955 1.87249756 C-5.85311956 -0.21328707 -3.66455104 -0.06429037 0 0 Z " fill="#8C9BA7" transform="translate(45.734375,154.609375)"/>
<path d="M0 0 C7.53392978 4.56887691 11.45329064 11.13330943 14.18359375 19.32421875 C15.3334207 28.62471774 13.43860276 35.58705655 8.18359375 43.32421875 C2.8053251 49.56566632 -2.92614767 52.74472015 -11.046875 53.70703125 C-20.67500482 54.19001268 -27.46122004 52.03195416 -34.72265625 45.6484375 C-41.3872985 38.54275275 -42.3477591 31.19057753 -42.09375 21.66015625 C-41.40943412 13.42908913 -37.98516764 7.80366779 -31.81640625 2.32421875 C-22.48229614 -4.55968745 -10.3984051 -4.86624869 0 0 Z " fill="#E4F6FD" transform="translate(367.81640625,144.67578125)"/>
<path d="M0 0 C5.83288329 4.47053166 10.22888108 9.78269039 12 17 C13.12849913 26.35713864 12.09804858 34.66236111 6.26953125 42.25390625 C-0.192215 49.25735577 -6.42795275 52.16068814 -15.9375 52.5625 C-24.067903 52.31665628 -29.59939457 49.79605335 -35.8125 44.6875 C-43.31570832 35.46927264 -45.1393789 27.73317842 -44 16 C-43.14408676 12.874056 -41.92823603 10.5857329 -40 8 C-39.2575 6.948125 -38.515 5.89625 -37.75 4.8125 C-27.69925095 -5.46667516 -12.51492465 -7.47945833 0 0 Z " fill="#E4F6FD" transform="translate(188,146)"/>
<path d="M0 0 C1.29982315 -0.0071553 2.5996463 -0.01431061 3.93885803 -0.02168274 C7.49270555 -0.0401563 11.04580035 -0.02728545 14.59961629 -0.00759244 C18.32353504 0.00882587 22.04740731 -0.00002308 25.77134705 -0.00511169 C32.02314238 -0.00962857 38.27463811 0.00621308 44.52636719 0.03417969 C51.74972148 0.06624404 58.97253594 0.06620928 66.19592863 0.04896492 C73.15211051 0.03309167 80.10809486 0.03983753 87.06426811 0.05690193 C90.02153228 0.06376656 92.97863783 0.06274616 95.93589973 0.05535698 C100.06564362 0.04626087 104.19455593 0.07024681 108.32421875 0.09765625 C109.54981506 0.09113037 110.77541138 0.08460449 112.03814697 0.07788086 C120.28077551 0.17105228 120.28077551 0.17105228 124.32542419 2.44960022 C126.85719494 5.566476 127.23756754 7.63667388 127.09741211 11.63110352 C125.44905989 14.24677177 124.73924781 15.2052871 122.09741211 16.63110352 C117.74421188 17.39277578 113.42682068 17.31358851 109.01708984 17.27807617 C107.67309383 17.28485524 106.32910712 17.29376001 104.98513794 17.30462646 C101.34248727 17.32739074 97.70054584 17.31859663 94.05788302 17.30273104 C90.24405956 17.29005945 86.43029623 17.30181538 82.61647034 17.30966187 C76.2132783 17.31875372 69.81037478 17.30678179 63.40722656 17.28295898 C56.00487367 17.25573666 48.60320911 17.26457122 41.20087284 17.29209101 C34.84316505 17.3147807 28.48566446 17.31798331 22.12792927 17.30489767 C18.33162053 17.29710374 14.53563539 17.29605979 10.73934746 17.31258011 C7.17102831 17.32702438 3.60359691 17.31700586 0.03537369 17.28810883 C-1.89848866 17.27834464 -3.83242611 17.29319795 -5.76625061 17.30874634 C-6.91726257 17.29464722 -8.06827454 17.2805481 -9.25416565 17.26602173 C-10.2542695 17.2641366 -11.25437334 17.26225147 -12.28478336 17.26030922 C-15.9007784 16.39118218 -16.94304435 14.70844798 -18.90258789 11.63110352 C-19.52758789 8.63110352 -19.52758789 8.63110352 -18.90258789 5.63110352 C-13.58475146 -0.67616545 -7.8368429 -0.07488724 0 0 Z " fill="#060501" transform="translate(66.902587890625,448.368896484375)"/>
<path d="M0 0 C1.29982315 -0.0071553 2.5996463 -0.01431061 3.93885803 -0.02168274 C7.49270555 -0.0401563 11.04580035 -0.02728545 14.59961629 -0.00759244 C18.32353504 0.00882587 22.04740731 -0.00002308 25.77134705 -0.00511169 C32.02314238 -0.00962857 38.27463811 0.00621308 44.52636719 0.03417969 C51.74972148 0.06624404 58.97253594 0.06620928 66.19592863 0.04896492 C73.15211051 0.03309167 80.10809486 0.03983753 87.06426811 0.05690193 C90.02153228 0.06376656 92.97863783 0.06274616 95.93589973 0.05535698 C100.06564362 0.04626087 104.19455593 0.07024681 108.32421875 0.09765625 C109.54981506 0.09113037 110.77541138 0.08460449 112.03814697 0.07788086 C120.28077551 0.17105228 120.28077551 0.17105228 124.32542419 2.44960022 C126.85719494 5.566476 127.23756754 7.63667388 127.09741211 11.63110352 C125.44905989 14.24677177 124.73924781 15.2052871 122.09741211 16.63110352 C117.74421188 17.39277578 113.42682068 17.31358851 109.01708984 17.27807617 C107.67309383 17.28485524 106.32910712 17.29376001 104.98513794 17.30462646 C101.34248727 17.32739074 97.70054584 17.31859663 94.05788302 17.30273104 C90.24405956 17.29005945 86.43029623 17.30181538 82.61647034 17.30966187 C76.2132783 17.31875372 69.81037478 17.30678179 63.40722656 17.28295898 C56.00487367 17.25573666 48.60320911 17.26457122 41.20087284 17.29209101 C34.84316505 17.3147807 28.48566446 17.31798331 22.12792927 17.30489767 C18.33162053 17.29710374 14.53563539 17.29605979 10.73934746 17.31258011 C7.17102831 17.32702438 3.60359691 17.31700586 0.03537369 17.28810883 C-1.89848866 17.27834464 -3.83242611 17.29319795 -5.76625061 17.30874634 C-6.91726257 17.29464722 -8.06827454 17.2805481 -9.25416565 17.26602173 C-10.2542695 17.2641366 -11.25437334 17.26225147 -12.28478336 17.26030922 C-15.9007784 16.39118218 -16.94304435 14.70844798 -18.90258789 11.63110352 C-19.52758789 8.63110352 -19.52758789 8.63110352 -18.90258789 5.63110352 C-13.58475146 -0.67616545 -7.8368429 -0.07488724 0 0 Z " fill="#060501" transform="translate(66.902587890625,394.368896484375)"/>
<path d="M0 0 C2.86724686 0.57344937 3.8614515 0.8614515 6 3 C6.25726891 5.15865231 6.25726891 5.15865231 6.26742554 7.88987732 C6.28022049 9.43990952 6.28022049 9.43990952 6.29327393 11.02125549 C6.29191437 12.72861122 6.29191437 12.72861122 6.29052734 14.47045898 C6.29724457 15.66562134 6.30396179 16.86078369 6.31088257 18.09216309 C6.32665755 21.37523863 6.33323945 24.65816258 6.33451414 27.94127154 C6.33641119 30.6799321 6.34376643 33.41856828 6.35085833 36.15721947 C6.36715359 42.61727668 6.37202623 49.07727812 6.37060547 55.53735352 C6.36940355 62.20622774 6.39051239 68.87477857 6.4220928 75.54357094 C6.44822393 81.26507005 6.45897411 86.98646334 6.45769465 92.7080217 C6.4571841 96.12707729 6.46291808 99.54584557 6.48405075 102.96484184 C6.50355866 106.77688618 6.49793194 110.58808976 6.48583984 114.40014648 C6.49707886 115.53635941 6.50831787 116.67257233 6.51989746 117.84321594 C6.51150848 118.87939056 6.50311951 119.91556519 6.49447632 120.98313904 C6.49556585 121.88482032 6.49665539 122.7865016 6.49777794 123.71550655 C6 126 6 126 4.45067024 127.78890324 C1.08191004 129.45371089 -2.02887055 129.42128548 -5.7052002 129.39440918 C-6.48575413 129.40050028 -7.26630807 129.40659139 -8.07051516 129.41286707 C-10.68843365 129.42952852 -13.30586743 129.42471688 -15.92382812 129.41992188 C-17.79968269 129.4272603 -19.67553272 129.43584587 -21.55137634 129.44558716 C-26.64839281 129.46783357 -31.74524778 129.47073234 -36.84230614 129.46883965 C-41.09454111 129.46872011 -45.34674166 129.47727715 -49.59896708 129.48561716 C-59.62801305 129.5048618 -69.65697578 129.50773088 -79.68603516 129.50097656 C-90.04036438 129.49433171 -100.39433773 129.51721563 -110.74859476 129.55429029 C-119.63276176 129.58494961 -128.51681405 129.59635151 -137.40103292 129.59245348 C-142.70977079 129.59038241 -148.01823167 129.59592067 -153.32691956 129.62034607 C-158.31749478 129.64254897 -163.30748962 129.64078936 -168.29806709 129.62041855 C-170.13148508 129.61699724 -171.96494167 129.62214559 -173.79830742 129.63640213 C-176.29782175 129.6545005 -178.79534721 129.64191794 -181.2947998 129.62145996 C-182.38798672 129.64023673 -182.38798672 129.64023673 -183.50325823 129.65939283 C-187.13320505 129.59551225 -188.72381918 129.24970874 -191.45151138 126.78346729 C-193.10871791 123.80457542 -193.49514827 122.21664935 -193.48101807 118.84306335 C-193.48651672 117.82649155 -193.49201538 116.80991974 -193.49768066 115.76254272 C-193.48329956 114.65843048 -193.46891846 113.55431824 -193.45410156 112.41674805 C-193.45468567 111.24558945 -193.45526978 110.07443085 -193.45587158 108.86778259 C-193.45308609 104.9987926 -193.42197016 101.13057408 -193.390625 97.26171875 C-193.38316427 94.57842199 -193.37727379 91.89516789 -193.37347412 89.21186829 C-193.36105297 82.87244386 -193.32824335 76.53329611 -193.28807616 70.19399339 C-193.24333138 62.97519057 -193.22136466 55.75637438 -193.20129442 48.53746736 C-193.15950972 33.69149539 -193.08917469 18.84576597 -193 4 C-192.67 4 -192.34 4 -192 4 C-192 43.27 -192 82.54 -192 123 C-159.79876207 122.9094929 -159.79876207 122.9094929 -127.59765625 122.79101562 C-114.46892566 122.73649489 -101.34023443 122.68508358 -88.21142578 122.65356445 C-78.65039859 122.63059663 -69.08947436 122.59721215 -59.52852881 122.55129844 C-54.46568307 122.52734989 -49.4029394 122.50863178 -44.3400383 122.50238609 C-39.57447584 122.49634266 -34.8091746 122.47636954 -30.0437088 122.44572449 C-28.29501025 122.43693239 -26.54627759 122.43322411 -24.79755783 122.43499184 C-22.40838694 122.4366444 -20.02001252 122.41994748 -17.63095093 122.39872742 C-16.94027539 122.40357499 -16.24959985 122.40842257 -15.53799474 122.41341704 C-10.98642751 122.34678062 -7.86629305 121.39008007 -4 119 C-0.14044552 113.78575015 -0.55900216 108.16645301 -0.56762695 101.94580078 C-0.5574353 100.84277115 -0.54724365 99.73974152 -0.53674316 98.60328674 C-0.50661436 94.96724365 -0.49734709 91.33146403 -0.48828125 87.6953125 C-0.47143454 85.17039108 -0.45328432 82.64547804 -0.43388367 80.12057495 C-0.39122939 74.16029156 -0.36169574 68.20003518 -0.33856028 62.23965251 C-0.31147524 55.45117006 -0.26756588 48.66282868 -0.22227156 41.87444711 C-0.12951416 27.91637476 -0.05779279 13.95825779 0 0 Z " fill="#F7C203" transform="translate(214,366)"/>
<path d="M0 0 C9.13622046 5.3863978 13.9407472 12.4081791 17.24609375 22.32421875 C17.24609375 26.94421875 17.24609375 31.56421875 17.24609375 36.32421875 C-3.21390625 36.32421875 -23.67390625 36.32421875 -44.75390625 36.32421875 C-44.75390625 17.57421875 -44.75390625 17.57421875 -39.75390625 10.32421875 C-39.03203125 9.25171875 -38.31015625 8.17921875 -37.56640625 7.07421875 C-27.31880736 -2.94565572 -13.28628888 -6.2177214 0 0 Z " fill="#FDD82C" transform="translate(276.75390625,30.67578125)"/>
<path d="M0 0 C0.66441841 0.973944 0.66441841 0.973944 1.34225941 1.96756363 C2.83969122 4.24135982 2.83969122 4.24135982 5.49310589 4.50780869 C6.99332397 4.51333944 6.99332397 4.51333944 8.52384949 4.51898193 C9.67229843 4.53289474 10.82074738 4.54680756 12.0039978 4.56114197 C13.26491241 4.5561116 14.52582703 4.55108124 15.82495117 4.54589844 C17.16529034 4.55463187 18.50561907 4.56511685 19.84593201 4.57722473 C23.48621676 4.60513428 27.12616216 4.60848835 30.76653838 4.60750484 C34.57029214 4.61062974 38.3738921 4.63623903 42.17756653 4.65948486 C49.3810723 4.70008106 56.58448748 4.72039401 63.78809005 4.73345876 C71.98881048 4.74931661 80.18937644 4.78772703 88.39000738 4.82805204 C105.25995887 4.91050046 122.12988563 4.9645616 139 5 C138.39235058 11.44108386 138.39235058 11.44108386 136.80254173 13.70581818 C134.29550927 15.50580748 132.54500479 15.38296194 129.47183228 15.39440918 C127.74737633 15.41143387 127.74737633 15.41143387 125.98808289 15.42880249 C124.0944677 15.42440659 124.0944677 15.42440659 122.16259766 15.41992188 C120.82052401 15.4272608 119.47845668 15.43584651 118.13639832 15.44558716 C114.48960659 15.46783291 110.84304062 15.47073228 107.19619036 15.46883965 C104.15196355 15.46872006 101.10778479 15.4772793 98.06357133 15.48561716 C90.88089006 15.50486293 83.698325 15.5077311 76.515625 15.50097656 C69.10655259 15.49433726 61.69797822 15.51719248 54.28900683 15.55429029 C47.92795745 15.58498497 41.56706828 15.59634753 35.20594633 15.59245348 C31.4067437 15.59038539 27.60792843 15.59587348 23.80879593 15.62034607 C20.2348141 15.64260688 16.66164153 15.64074219 13.08765602 15.62041855 C11.15273346 15.61538157 9.21779589 15.63503283 7.28297424 15.65542603 C-2.17929405 15.56362061 -2.17929405 15.56362061 -5.31851196 12.68811035 C-7 10 -7 10 -7 6.375 C-5.65889593 1.84877377 -4.87377171 0 0 0 Z " fill="#F5BF00" transform="translate(49,460)"/>
<path d="M0 0 C0.66441841 0.973944 0.66441841 0.973944 1.34225941 1.96756363 C2.83969122 4.24135982 2.83969122 4.24135982 5.49310589 4.50780869 C6.99332397 4.51333944 6.99332397 4.51333944 8.52384949 4.51898193 C9.67229843 4.53289474 10.82074738 4.54680756 12.0039978 4.56114197 C13.26491241 4.5561116 14.52582703 4.55108124 15.82495117 4.54589844 C17.16529034 4.55463187 18.50561907 4.56511685 19.84593201 4.57722473 C23.48621676 4.60513428 27.12616216 4.60848835 30.76653838 4.60750484 C34.57029214 4.61062974 38.3738921 4.63623903 42.17756653 4.65948486 C49.3810723 4.70008106 56.58448748 4.72039401 63.78809005 4.73345876 C71.98881048 4.74931661 80.18937644 4.78772703 88.39000738 4.82805204 C105.25995887 4.91050046 122.12988563 4.9645616 139 5 C138.39235058 11.44108386 138.39235058 11.44108386 136.80254173 13.70581818 C134.29550927 15.50580748 132.54500479 15.38296194 129.47183228 15.39440918 C127.74737633 15.41143387 127.74737633 15.41143387 125.98808289 15.42880249 C124.0944677 15.42440659 124.0944677 15.42440659 122.16259766 15.41992188 C120.82052401 15.4272608 119.47845668 15.43584651 118.13639832 15.44558716 C114.48960659 15.46783291 110.84304062 15.47073228 107.19619036 15.46883965 C104.15196355 15.46872006 101.10778479 15.4772793 98.06357133 15.48561716 C90.88089006 15.50486293 83.698325 15.5077311 76.515625 15.50097656 C69.10655259 15.49433726 61.69797822 15.51719248 54.28900683 15.55429029 C47.92795745 15.58498497 41.56706828 15.59634753 35.20594633 15.59245348 C31.4067437 15.59038539 27.60792843 15.59587348 23.80879593 15.62034607 C20.2348141 15.64260688 16.66164153 15.64074219 13.08765602 15.62041855 C11.15273346 15.61538157 9.21779589 15.63503283 7.28297424 15.65542603 C-2.17929405 15.56362061 -2.17929405 15.56362061 -5.31851196 12.68811035 C-7 10 -7 10 -7 6.375 C-5.65889593 1.84877377 -4.87377171 0 0 0 Z " fill="#F5BF00" transform="translate(49,406)"/>
<path d="M0 0 C0.84338425 -0.0066568 1.68676849 -0.0133136 2.55570984 -0.02017212 C4.33846867 -0.03028475 6.12126525 -0.03498957 7.90405273 -0.03466797 C10.61701706 -0.03903082 13.32834008 -0.07533484 16.04101562 -0.11328125 C17.77733822 -0.11915198 19.5136685 -0.12311966 21.25 -0.125 C22.45660027 -0.14655655 22.45660027 -0.14655655 23.68757629 -0.16854858 C30.14597781 -0.11676101 34.3204323 1.6325297 39.19921875 6.0234375 C40.98521055 9.69464286 41.56471509 13.26164651 41.32421875 17.3359375 C39.33460454 21.31516591 37.12047573 24.00919935 33.32421875 26.3359375 C29.38671445 27.64843893 25.59944191 27.5381274 21.4921875 27.57421875 C20.18813713 27.58632637 20.18813713 27.58632637 18.85774231 27.59867859 C17.01773058 27.61250551 15.17769334 27.62323389 13.33764648 27.63110352 C10.53254256 27.64830977 7.72861959 27.6922067 4.92382812 27.73632812 C3.13412323 27.74645621 1.34440834 27.75497195 -0.4453125 27.76171875 C-1.69717094 27.78798088 -1.69717094 27.78798088 -2.97431946 27.81477356 C-8.35368013 27.79486992 -11.41974109 26.93015421 -15.67578125 23.3359375 C-18.27126755 19.52922426 -19.33383345 16.01857953 -19.1640625 11.36328125 C-18.10407169 6.96219943 -14.76214848 3.76223506 -11.11157227 1.26660156 C-7.47349512 -0.12343052 -3.84328212 0.01055407 0 0 Z " fill="#62B1F1" transform="translate(291.67578125,368.6640625)"/>
<path d="M0 0 C4.90935854 2.06759523 7.97476598 5.25477389 10.7109375 9.78515625 C12.92208103 15.22424653 12.82737217 20.93089485 11.1484375 26.52734375 C8.76071829 31.3888261 4.69653415 35.21269119 -0.21875 37.41796875 C-6.36292744 38.49185744 -12.24559844 38.45957243 -17.78125 35.35546875 C-21.49150974 32.61582548 -23.26754943 29.55451395 -25.21875 25.41796875 C-25.54875 24.75796875 -25.87875 24.09796875 -26.21875 23.41796875 C-27.05186333 17.01489772 -26.42208091 12.39283352 -22.6484375 7.10546875 C-16.49094844 -0.16238719 -9.18259415 -2.40881431 0 0 Z " fill="#62B2F3" transform="translate(61.21875,17.58203125)"/>
<path d="M0 0 C5.70530884 2.63897244 9.27763206 6.45184556 11.7109375 12.27734375 C12.44524479 18.33110965 12.73378777 24.59940236 9.08203125 29.7421875 C5.33144417 33.94156278 2.30036786 36.82475917 -3.41796875 37.82421875 C-9.51785904 38.07867536 -14.66104511 37.6991111 -19.6328125 33.94921875 C-24.10223288 29.43763403 -26.54165205 24.58502257 -26.9140625 18.21484375 C-26.55562128 11.62976648 -23.4526558 7.28262534 -18.7265625 2.90234375 C-12.73528024 -1.09184442 -7.04045711 -2.22266991 0 0 Z " fill="#62B2F3" transform="translate(478.2890625,17.72265625)"/>
<path d="M0 0 C0.57105469 0.12117188 1.14210938 0.24234375 1.73046875 0.3671875 C14.47775441 3.00176164 26.8289172 4.34322676 39.8125 4.625 C41.29494159 4.66330682 42.77736397 4.70236519 44.25976562 4.7421875 C47.83966478 4.83675637 51.41971326 4.92127018 55 5 C44.73265368 15.36029396 44.73265368 15.36029396 38.65234375 16.40234375 C35.96018688 16.22706142 33.60466379 15.71266495 31 15 C29.2984375 14.54173828 29.2984375 14.54173828 27.5625 14.07421875 C18.13640214 11.21693284 9.37451388 7.19678738 1 2 C0.67 1.34 0.34 0.68 0 0 Z " fill="#40A0ED" transform="translate(124,310)"/>
<path d="M0 0 C0.33 0 0.66 0 1 0 C1.11584578 11.51769697 1.20469121 23.03525536 1.25906086 34.55341625 C1.28515559 39.90178695 1.32055188 45.24975908 1.37719727 50.59790039 C1.43152072 55.75911183 1.46142146 60.91993991 1.47438622 66.08141518 C1.48362545 68.05064238 1.50166769 70.01984857 1.52865028 71.98891258 C1.56494513 74.7472201 1.56994519 77.50394331 1.56762695 80.26245117 C1.58560333 81.07669052 1.60357971 81.89092987 1.62210083 82.72984314 C1.58356255 86.96719038 1.35313859 88.54553031 -1.33935547 92.01062012 C-4.67626471 94.50564719 -6.48033144 94.58264083 -10.61328125 94.48828125 C-11.86044922 94.47216797 -13.10761719 94.45605469 -14.39257812 94.43945312 C-15.68615234 94.39755859 -16.97972656 94.35566406 -18.3125 94.3125 C-19.62541016 94.28994141 -20.93832031 94.26738281 -22.29101562 94.24414062 C-25.5285013 94.18527725 -28.76367 94.10308804 -32 94 C-31.67 91.03 -31.34 88.06 -31 85 C-20.77 85 -10.54 85 0 85 C0 56.95 0 28.9 0 0 Z " fill="#6A7984" transform="translate(490,160)"/>
<path d="M0 0 C0.33 0 0.66 0 1 0 C1.33 28.38 1.66 56.76 2 86 C11.57 86.33 21.14 86.66 31 87 C32.35439668 89.70879335 32.06501451 92.00933268 32 95 C27.41687916 95.11605098 22.83413551 95.18720362 18.25 95.25 C16.94804688 95.28351563 15.64609375 95.31703125 14.3046875 95.3515625 C13.05429687 95.36445313 11.80390625 95.37734375 10.515625 95.390625 C9.36352539 95.41157227 8.21142578 95.43251953 7.02441406 95.45410156 C4 95 4 95 1.83935547 93.52209473 C-0.79987155 89.90322895 -0.52814218 86.49926013 -0.45410156 82.19238281 C-0.45468567 81.30422379 -0.45526978 80.41606476 -0.45587158 79.50099182 C-0.45308686 76.56797073 -0.42197651 73.63596836 -0.390625 70.703125 C-0.38316399 68.66860509 -0.3774704 66.634078 -0.37347412 64.59954834 C-0.35820681 59.24656305 -0.31891528 53.89401238 -0.2746582 48.54119873 C-0.23372932 43.07830688 -0.21546818 37.61534475 -0.1953125 32.15234375 C-0.15242231 21.43470495 -0.08415748 10.71738863 0 0 Z " fill="#7A8A96" transform="translate(35,159)"/>
<path d="M0 0 C0.90714249 -0.00426498 1.81428497 -0.00852997 2.74891663 -0.01292419 C4.24588074 -0.01224442 4.24588074 -0.01224442 5.77308655 -0.0115509 C6.82194534 -0.01490952 7.87080414 -0.01826813 8.95144653 -0.02172852 C12.43245108 -0.03125864 15.91340764 -0.03318263 19.39442444 -0.03425598 C21.80576599 -0.03746699 24.21710735 -0.04083094 26.62844849 -0.04434204 C31.68838452 -0.05033838 36.74830346 -0.05218141 41.8082428 -0.05158997 C48.30302577 -0.05148828 54.79769956 -0.06514463 61.29245663 -0.08236217 C66.27403266 -0.09346128 71.25558213 -0.09550982 76.23716927 -0.09498024 C78.63223713 -0.09616336 81.02730562 -0.10060358 83.42236137 -0.10831261 C86.76721295 -0.11807087 90.11182516 -0.11525096 93.4566803 -0.10920715 C94.45263214 -0.11482666 95.44858398 -0.12044617 96.47471619 -0.12623596 C97.83965965 -0.11994423 97.83965965 -0.11994423 99.23217773 -0.11352539 C100.41877692 -0.11434254 100.41877692 -0.11434254 101.6293478 -0.1151762 C103.67958069 0.13371277 103.67958069 0.13371277 106.67958069 2.13371277 C105.42392303 2.13291718 104.16826538 2.13212158 102.8745575 2.13130188 C91.01626687 2.12769285 79.15840875 2.15558922 67.30025673 2.21399117 C61.20442666 2.24301009 55.10898016 2.26109429 49.01307678 2.25382996 C43.12538593 2.24722202 37.23845205 2.26980634 31.35091782 2.3122673 C29.10959443 2.32337226 26.86819404 2.32412239 24.62686539 2.31413651 C9.67699274 1.78649262 9.67699274 1.78649262 -3.70753479 7.49549866 C-6.34708315 10.17649988 -7.78749191 12.68462612 -9.32041931 16.13371277 C-9.73291931 16.93808777 -10.14541931 17.74246277 -10.57041931 18.57121277 C-10.81791931 19.08683777 -11.06541931 19.60246277 -11.32041931 20.13371277 C-13.19897017 16.37661105 -12.9842151 12.21392539 -12.32041931 8.13371277 C-9.28136902 2.91589719 -6.09119061 0.01291011 0 0 Z " fill="#E0E1E1" transform="translate(212.32041931152344,252.8662872314453)"/>
<path d="M0 0 C1.02222656 -0.01417969 2.04445312 -0.02835938 3.09765625 -0.04296875 C5.91793159 0.18591192 7.5430336 0.73474221 9.9375 2.1875 C9.19886719 2.26226562 8.46023437 2.33703125 7.69921875 2.4140625 C-3.05320862 3.80764267 -11.79802908 7.46669955 -18.6328125 16.1328125 C-23.51599006 23.15071249 -24.99033472 29.72303727 -26.0625 38.1875 C-28.54745911 35.70254089 -28.36912412 34.13027439 -28.44262695 30.72802734 C-28.41254228 18.02083539 -28.41254228 18.02083539 -24.0625 12.1875 C-23.32 11.135625 -22.5775 10.08375 -21.8125 9 C-15.30404709 2.34362771 -9.24709991 0.05845196 0 0 Z " fill="#C9E8F6" transform="translate(172.0625,141.8125)"/>
<path d="M0 0 C0.99 0.66 1.98 1.32 3 2 C1.98292969 2.12955078 1.98292969 2.12955078 0.9453125 2.26171875 C-9.44199798 3.82988612 -18.53975282 7.38108486 -25 16 C-29.72221987 23.46794499 -31.96519025 30.15832389 -32 39 C-35.61369265 33.18353853 -34.72926208 25.09712697 -33.5703125 18.5859375 C-31.23769561 11.35770493 -25.90800817 5.77801053 -19.4375 2 C-13.24267118 -0.83056024 -6.68138782 -0.82539902 0 0 Z " fill="#CAEAF7" transform="translate(360,142)"/>
<path d="M0 0 C2.73060542 2.73060542 2.75357412 4.92496673 3.09765625 8.6796875 C2.94320595 12.34942673 1.37657555 14.30226559 -1 17 C-5.91871399 21.32250623 -10.68771075 21.15977127 -16.97265625 21.16796875 C-17.85150986 21.17129715 -18.73036346 21.17462555 -19.635849 21.17805481 C-21.49266028 21.18311548 -23.34948065 21.1854634 -25.20629883 21.18530273 C-28.05500107 21.18749423 -30.90331916 21.20567259 -33.75195312 21.22460938 C-35.55468617 21.22754241 -37.35742106 21.22952781 -39.16015625 21.23046875 C-40.01537369 21.23765427 -40.87059113 21.24483978 -41.75172424 21.25224304 C-47.77116998 21.22883002 -47.77116998 21.22883002 -50 19 C-48.98687744 18.99589111 -47.97375488 18.99178223 -46.92993164 18.98754883 C-43.13304339 18.96560281 -39.33716886 18.91115688 -35.54077148 18.84741211 C-33.9048034 18.82436577 -32.26868977 18.80986806 -30.63256836 18.80444336 C-17.43475105 18.97570479 -17.43475105 18.97570479 -6 13 C-2.54853466 8.92904089 -1.22069785 5.08624105 0 0 Z " fill="#40A0ED" transform="translate(330,375)"/>
<path d="M0 0 C6.54298956 4.54374275 8.52957835 9.58873506 11 17 C11 21.62 11 26.24 11 31 C-9.46 31 -29.92 31 -51 31 C-51 30.67 -51 30.34 -51 30 C-31.86 30 -12.72 30 7 30 C5.77035977 15.82436477 5.77035977 15.82436477 1.0234375 4.00390625 C0 2 0 2 0 0 Z " fill="#CFA609" transform="translate(283,36)"/>
<path d="M0 0 C0 9.24 0 18.48 0 28 C-1.98 28 -3.96 28 -6 28 C-6.14522934 24.08372337 -6.23404757 20.16813847 -6.3125 16.25 C-6.35439453 15.13882812 -6.39628906 14.02765625 -6.43945312 12.8828125 C-6.56367514 4.63447059 -6.56367514 4.63447059 -3.54296875 1.234375 C-1 0 -1 0 0 0 Z " fill="#FDC500" transform="translate(186,330)"/>
<path d="M0 0 C0.33 0 0.66 0 1 0 C0.78914179 6.00945911 -0.20998088 9.14425876 -4.375 13.51953125 C-6.44746862 15.40766973 -8.4334418 16.85930747 -11 18 C-11.66 17.67 -12.32 17.34 -13 17 C-12.22076172 16.41605469 -12.22076172 16.41605469 -11.42578125 15.8203125 C-5.75272159 11.26928128 -2.79476485 6.67787562 0 0 Z " fill="#3E9AE4" transform="translate(489,37)"/>
<path d="M0 0 C0.66 0 1.32 0 2 0 C0.38867113 6.15234659 -2.52209186 10.21360111 -7.6875 13.9375 C-8.450625 14.288125 -9.21375 14.63875 -10 15 C-10.66 14.67 -11.32 14.34 -12 14 C-11.46890625 13.57589844 -10.9378125 13.15179688 -10.390625 12.71484375 C-5.71829462 8.83544535 -2.67305539 5.45748809 0 0 Z " fill="#3D98E1" transform="translate(71,40)"/>
</svg>
