<svg width="219" height="332" viewBox="0 0 219 332" fill="none" xmlns="http://www.w3.org/2000/svg">
<g clip-path="url(#clip0_6_9)">
<mask id="mask0_6_9" style="mask-type:luminance" maskUnits="userSpaceOnUse" x="0" y="0" width="219" height="332">
<path d="M0 331.278H218.93V0H0V331.278Z" fill="white"/>
</mask>
<g mask="url(#mask0_6_9)">
<path d="M219.12 107.671C219.12 68.8956 209.252 32.4539 191.904 0.679291L13.9319 103.408C5.97205 107.994 1.0625 116.52 1.0625 125.714V331.144C121.996 328.223 219.093 229.272 219.093 107.671H219.12Z" fill="#FF477E"/>
</g>
<path d="M41.716 190.486C39.196 190.486 37.09 189.946 35.398 188.866C33.742 187.786 32.482 186.292 31.618 184.384C30.754 182.476 30.25 180.262 30.106 177.742L35.506 176.284C35.614 177.832 35.848 179.326 36.208 180.766C36.604 182.206 37.234 183.394 38.098 184.33C38.962 185.23 40.168 185.68 41.716 185.68C43.3 185.68 44.488 185.248 45.28 184.384C46.108 183.484 46.522 182.206 46.522 180.55C46.522 178.57 46.072 176.986 45.172 175.798C44.272 174.574 43.138 173.35 41.77 172.126L34.426 165.646C32.986 164.386 31.924 163.018 31.24 161.542C30.556 160.03 30.214 158.176 30.214 155.98C30.214 152.776 31.132 150.292 32.968 148.528C34.804 146.764 37.306 145.882 40.474 145.882C42.202 145.882 43.714 146.116 45.01 146.584C46.342 147.016 47.44 147.7 48.304 148.636C49.204 149.572 49.906 150.76 50.41 152.2C50.95 153.604 51.31 155.26 51.49 157.168L46.306 158.572C46.198 157.132 45.982 155.818 45.658 154.63C45.334 153.406 44.758 152.434 43.93 151.714C43.138 150.958 41.986 150.58 40.474 150.58C38.962 150.58 37.774 150.994 36.91 151.822C36.082 152.614 35.668 153.802 35.668 155.386C35.668 156.718 35.884 157.816 36.316 158.68C36.784 159.544 37.522 160.426 38.53 161.326L45.928 167.806C47.584 169.246 49.042 170.974 50.302 172.99C51.562 174.97 52.192 177.328 52.192 180.064C52.192 182.224 51.742 184.096 50.842 185.68C49.942 187.228 48.7 188.416 47.116 189.244C45.568 190.072 43.768 190.486 41.716 190.486ZM68.1034 190.486C65.1514 190.486 62.7934 189.91 61.0294 188.758C59.2654 187.606 58.0054 185.968 57.2494 183.844C56.4934 181.684 56.1154 179.164 56.1154 176.284V159.706C56.1154 156.826 56.4934 154.36 57.2494 152.308C58.0414 150.22 59.3014 148.636 61.0294 147.556C62.7934 146.44 65.1514 145.882 68.1034 145.882C71.0554 145.882 73.3954 146.44 75.1234 147.556C76.8514 148.672 78.0934 150.256 78.8494 152.308C79.6414 154.36 80.0374 156.826 80.0374 159.706V176.338C80.0374 179.182 79.6414 181.666 78.8494 183.79C78.0934 185.914 76.8514 187.57 75.1234 188.758C73.3954 189.91 71.0554 190.486 68.1034 190.486ZM68.1034 185.68C69.7234 185.68 70.9474 185.356 71.7754 184.708C72.6034 184.024 73.1614 183.088 73.4494 181.9C73.7374 180.676 73.8814 179.254 73.8814 177.634V158.464C73.8814 156.844 73.7374 155.458 73.4494 154.306C73.1614 153.118 72.6034 152.218 71.7754 151.606C70.9474 150.958 69.7234 150.634 68.1034 150.634C66.4834 150.634 65.2414 150.958 64.3774 151.606C63.5494 152.218 62.9914 153.118 62.7034 154.306C62.4154 155.458 62.2714 156.844 62.2714 158.464V177.634C62.2714 179.254 62.4154 180.676 62.7034 181.9C62.9914 183.088 63.5494 184.024 64.3774 184.708C65.2414 185.356 66.4834 185.68 68.1034 185.68ZM86.0348 190V146.26H92.1368V185.626H103.315V190H86.0348ZM111.157 190L101.383 146.26H107.107L114.019 178.498L120.607 146.26H126.169L116.503 190H111.157ZM130.806 190V146.26H147.762V150.796H136.908V165.268H145.71V169.588H136.908V185.626H147.87V190H130.806ZM152.797 190V146.26H161.599C164.515 146.26 166.927 146.656 168.835 147.448C170.743 148.204 172.147 149.446 173.047 151.174C173.983 152.866 174.451 155.098 174.451 157.87C174.451 159.562 174.271 161.11 173.911 162.514C173.551 163.882 172.975 165.052 172.183 166.024C171.391 166.96 170.347 167.644 169.051 168.076L175.261 190H169.375L163.651 169.48H158.899V190H152.797ZM158.899 165.106H161.221C162.949 165.106 164.353 164.89 165.433 164.458C166.513 164.026 167.305 163.288 167.809 162.244C168.313 161.2 168.565 159.742 168.565 157.87C168.565 155.314 168.097 153.478 167.161 152.362C166.225 151.21 164.371 150.634 161.599 150.634H158.899V165.106Z" fill="white"/>
</g>
<defs>
<clipPath id="clip0_6_9">
<rect width="219" height="332" fill="white"/>
</clipPath>
</defs>
</svg>
