<svg width="219" height="332" viewBox="0 0 219 332" fill="none" xmlns="http://www.w3.org/2000/svg">
<g clip-path="url(#clip0_6_16)">
<mask id="mask0_6_16" style="mask-type:luminance" maskUnits="userSpaceOnUse" x="0" y="0" width="219" height="332">
<path d="M0 331.278H218.413V0H0V331.278Z" fill="white"/>
</mask>
<g mask="url(#mask0_6_16)">
<path d="M218.139 331.144V125.741C218.139 116.547 213.208 108.048 205.243 103.435L27.2974 0.679291C9.94963 32.4539 0.0820312 68.8956 0.0820312 107.671C0.0820312 229.272 97.179 328.223 218.112 331.144H218.139Z" fill="#2CB67D"/>
</g>
<path d="M35.026 190L44.314 146.26H50.2L59.542 190H53.764L51.766 178.984H42.856L40.75 190H35.026ZM43.666 174.61H50.956L47.284 154.9L43.666 174.61ZM74.1359 190.486C71.6159 190.486 69.5099 189.946 67.8179 188.866C66.1619 187.786 64.9019 186.292 64.0379 184.384C63.1739 182.476 62.6699 180.262 62.5259 177.742L67.9259 176.284C68.0339 177.832 68.2679 179.326 68.6279 180.766C69.0239 182.206 69.6539 183.394 70.5179 184.33C71.3819 185.23 72.5879 185.68 74.1359 185.68C75.7199 185.68 76.9079 185.248 77.6999 184.384C78.5279 183.484 78.9419 182.206 78.9419 180.55C78.9419 178.57 78.4919 176.986 77.5919 175.798C76.6919 174.574 75.5579 173.35 74.1899 172.126L66.8459 165.646C65.4059 164.386 64.3439 163.018 63.6599 161.542C62.9759 160.03 62.6339 158.176 62.6339 155.98C62.6339 152.776 63.5519 150.292 65.3879 148.528C67.2239 146.764 69.7259 145.882 72.8939 145.882C74.6219 145.882 76.1339 146.116 77.4299 146.584C78.7619 147.016 79.8599 147.7 80.7239 148.636C81.6239 149.572 82.3259 150.76 82.8299 152.2C83.3699 153.604 83.7299 155.26 83.9099 157.168L78.7259 158.572C78.6179 157.132 78.4019 155.818 78.0779 154.63C77.7539 153.406 77.1779 152.434 76.3499 151.714C75.5579 150.958 74.4059 150.58 72.8939 150.58C71.3819 150.58 70.1939 150.994 69.3299 151.822C68.5019 152.614 68.0879 153.802 68.0879 155.386C68.0879 156.718 68.3039 157.816 68.7359 158.68C69.2039 159.544 69.9419 160.426 70.9499 161.326L78.3479 167.806C80.0039 169.246 81.4619 170.974 82.7219 172.99C83.9819 174.97 84.6119 177.328 84.6119 180.064C84.6119 182.224 84.1619 184.096 83.2619 185.68C82.3619 187.228 81.1199 188.416 79.5359 189.244C77.9879 190.072 76.1879 190.486 74.1359 190.486ZM99.2902 190.486C96.7702 190.486 94.6642 189.946 92.9722 188.866C91.3162 187.786 90.0562 186.292 89.1922 184.384C88.3282 182.476 87.8242 180.262 87.6802 177.742L93.0802 176.284C93.1882 177.832 93.4222 179.326 93.7822 180.766C94.1782 182.206 94.8082 183.394 95.6722 184.33C96.5362 185.23 97.7422 185.68 99.2902 185.68C100.874 185.68 102.062 185.248 102.854 184.384C103.682 183.484 104.096 182.206 104.096 180.55C104.096 178.57 103.646 176.986 102.746 175.798C101.846 174.574 100.712 173.35 99.3442 172.126L92.0002 165.646C90.5602 164.386 89.4982 163.018 88.8142 161.542C88.1302 160.03 87.7882 158.176 87.7882 155.98C87.7882 152.776 88.7062 150.292 90.5422 148.528C92.3782 146.764 94.8802 145.882 98.0482 145.882C99.7762 145.882 101.288 146.116 102.584 146.584C103.916 147.016 105.014 147.7 105.878 148.636C106.778 149.572 107.48 150.76 107.984 152.2C108.524 153.604 108.884 155.26 109.064 157.168L103.88 158.572C103.772 157.132 103.556 155.818 103.232 154.63C102.908 153.406 102.332 152.434 101.504 151.714C100.712 150.958 99.5602 150.58 98.0482 150.58C96.5362 150.58 95.3482 150.994 94.4842 151.822C93.6562 152.614 93.2422 153.802 93.2422 155.386C93.2422 156.718 93.4582 157.816 93.8902 158.68C94.3582 159.544 95.0962 160.426 96.1042 161.326L103.502 167.806C105.158 169.246 106.616 170.974 107.876 172.99C109.136 174.97 109.766 177.328 109.766 180.064C109.766 182.224 109.316 184.096 108.416 185.68C107.516 187.228 106.274 188.416 104.69 189.244C103.142 190.072 101.342 190.486 99.2902 190.486ZM114.5 190V146.26H131.456V150.796H120.602V165.268H129.404V169.588H120.602V185.626H131.564V190H114.5ZM141.296 190V150.796H133.898V146.26H154.58V150.796H147.398V190H141.296ZM169.111 190.486C166.591 190.486 164.485 189.946 162.793 188.866C161.137 187.786 159.877 186.292 159.013 184.384C158.149 182.476 157.645 180.262 157.501 177.742L162.901 176.284C163.009 177.832 163.243 179.326 163.603 180.766C163.999 182.206 164.629 183.394 165.493 184.33C166.357 185.23 167.563 185.68 169.111 185.68C170.695 185.68 171.883 185.248 172.675 184.384C173.503 183.484 173.917 182.206 173.917 180.55C173.917 178.57 173.467 176.986 172.567 175.798C171.667 174.574 170.533 173.35 169.165 172.126L161.821 165.646C160.381 164.386 159.319 163.018 158.635 161.542C157.951 160.03 157.609 158.176 157.609 155.98C157.609 152.776 158.527 150.292 160.363 148.528C162.199 146.764 164.701 145.882 167.869 145.882C169.597 145.882 171.109 146.116 172.405 146.584C173.737 147.016 174.835 147.7 175.699 148.636C176.599 149.572 177.301 150.76 177.805 152.2C178.345 153.604 178.705 155.26 178.885 157.168L173.701 158.572C173.593 157.132 173.377 155.818 173.053 154.63C172.729 153.406 172.153 152.434 171.325 151.714C170.533 150.958 169.381 150.58 167.869 150.58C166.357 150.58 165.169 150.994 164.305 151.822C163.477 152.614 163.063 153.802 163.063 155.386C163.063 156.718 163.279 157.816 163.711 158.68C164.179 159.544 164.917 160.426 165.925 161.326L173.323 167.806C174.979 169.246 176.437 170.974 177.697 172.99C178.957 174.97 179.587 177.328 179.587 180.064C179.587 182.224 179.137 184.096 178.237 185.68C177.337 187.228 176.095 188.416 174.511 189.244C172.963 190.072 171.163 190.486 169.111 190.486Z" fill="white"/>
</g>
<defs>
<clipPath id="clip0_6_16">
<rect width="219" height="332" fill="white"/>
</clipPath>
</defs>
</svg>
