<svg width="473" height="478" viewBox="0 0 473 478" fill="none" xmlns="http://www.w3.org/2000/svg">
<g opacity="0.5">
<mask id="mask0_266_927" style="mask-type:luminance" maskUnits="userSpaceOnUse" x="254" y="115" width="220" height="332">
<path d="M254.07 447H473.001V115.721H254.07V447Z" fill="white"/>
</mask>
<g mask="url(#mask0_266_927)">
<path d="M473.19 223.393C473.19 184.618 463.322 148.176 445.975 116.401L268.002 219.13C260.042 223.716 255.133 232.242 255.133 241.436V446.866C376.066 443.945 473.163 344.994 473.163 223.393H473.19Z" fill="#9b5de5"/>
</g>
</g>
<g opacity="0.5">
<mask id="mask1_266_927" style="mask-type:luminance" maskUnits="userSpaceOnUse" x="58" y="0" width="384" height="214">
<path d="M58.1631 213.676H441.701V3.05176e-05H58.1631V213.676Z" fill="white"/>
</mask>
<g mask="url(#mask1_266_927)">
<path d="M262.506 209.634L440.452 106.91C401.192 42.7144 330.405 -0.108047 249.637 -0.108047C168.869 -0.108047 98.1094 42.7144 58.8223 106.91L236.741 209.634C244.706 214.22 254.547 214.22 262.506 209.634Z" fill="#2cb67d"/>
</g>
</g>
<mask id="mask2_266_927" style="mask-type:luminance" maskUnits="userSpaceOnUse" x="0" y="146" width="219" height="332">
<path d="M0 478H218.413V146.721H0V478Z" fill="white"/>
</mask>
<g mask="url(#mask2_266_927)">
<path d="M218.139 477.866V272.463C218.139 263.269 213.208 254.77 205.243 250.157L27.2974 147.401C9.94963 179.176 0.0820312 215.618 0.0820312 254.393C0.0820312 375.994 97.179 474.945 218.112 477.866H218.139Z" fill="#ffc75f"/>
</g>
<path d="M149.662 127.109C148.33 127.109 147.034 126.868 145.776 126.387C144.517 125.906 143.462 125.239 142.61 124.388C140.759 122.537 139.834 120.297 139.834 117.669V113.393H145.664V117.669C145.664 118.779 146.053 119.723 146.831 120.501C147.608 121.278 148.552 121.667 149.662 121.667C150.736 121.667 151.661 121.278 152.439 120.501C153.216 119.723 153.605 118.779 153.605 117.669V116.225C153.605 115.337 153.438 114.541 153.105 113.837C152.809 113.097 152.402 112.431 151.884 111.838C151.365 111.209 150.755 110.617 150.051 110.062C149.385 109.506 148.663 108.932 147.886 108.34C147.515 108.118 147.09 107.822 146.608 107.452C145.868 106.933 145.128 106.397 144.387 105.841C143.684 105.286 143.055 104.675 142.499 104.009C140.722 101.899 139.834 99.4927 139.834 96.7903V95.3466C139.834 94.088 140.056 92.8848 140.5 91.7373C140.982 90.5897 141.685 89.5717 142.61 88.6832C143.462 87.8318 144.517 87.1655 145.776 86.6842C147.034 86.166 148.33 85.9068 149.662 85.9068C150.995 85.9068 152.291 86.166 153.549 86.6842C154.808 87.1655 155.863 87.8318 156.715 88.6832C157.603 89.5717 158.269 90.5897 158.714 91.7373C159.195 92.8848 159.435 94.088 159.435 95.3466V99.6778H153.605V95.3466C153.605 94.273 153.216 93.3476 152.439 92.5702C151.661 91.7558 150.736 91.3486 149.662 91.3486C148.552 91.3486 147.608 91.7558 146.831 92.5702C146.053 93.3476 145.664 94.273 145.664 95.3466V96.7903C145.664 97.5307 145.776 98.2155 145.998 98.8449C146.257 99.4372 146.627 100.011 147.108 100.566C147.589 101.122 148.163 101.677 148.83 102.232C149.496 102.787 150.255 103.38 151.106 104.009C151.55 104.305 151.958 104.601 152.328 104.897C153.105 105.453 153.883 106.026 154.66 106.619C155.437 107.211 156.122 107.859 156.715 108.562C158.528 110.857 159.435 113.412 159.435 116.225V117.669C159.435 120.26 158.528 122.5 156.715 124.388C155.863 125.239 154.808 125.906 153.549 126.387C152.291 126.868 150.995 127.109 149.662 127.109ZM169.498 126.331V91.7373H162.613V86.6842H182.27V91.7373H175.329V126.331H169.498ZM201.384 126.331L194.166 109.229H193.5V126.331H187.669V86.6842H197.164C198.349 86.6842 199.46 86.9248 200.496 87.4061C201.57 87.8503 202.495 88.4611 203.272 89.2385C204.05 90.0159 204.661 90.9229 205.105 91.9594C205.586 92.9959 205.827 94.1065 205.827 95.2911V95.3466L205.438 100.677C205.401 101.603 205.253 102.491 204.994 103.343C204.772 104.194 204.402 104.99 203.883 105.73C202.921 107.1 201.699 108.081 200.218 108.673L207.715 126.331H201.384ZM195.998 103.787C197.072 103.787 197.997 103.417 198.775 102.676C199.589 101.899 199.996 100.973 199.996 99.8999V95.6798C199.996 94.6062 199.589 93.6807 198.775 92.9034C197.997 92.126 197.072 91.7373 195.998 91.7373H193.5V103.787H195.998ZM227.694 126.331L226.305 117.78H218.643L217.31 126.331H211.424L218.254 86.6842H226.694L233.524 126.331H227.694ZM225.473 112.727L222.474 94.2916L219.475 112.727H225.473ZM240.763 126.331V91.7373H233.877V86.6842H253.534V91.7373H246.593V126.331H240.763ZM258.934 126.331V86.6842H275.092V91.7373H264.764V104.009H273.482V109.062H264.764V121.278H275.092V126.331H258.934ZM290.294 127.109C288.961 127.109 287.647 126.868 286.351 126.387C285.093 125.906 284.037 125.239 283.186 124.388C282.335 123.462 281.668 122.444 281.187 121.334C280.706 120.186 280.465 118.965 280.465 117.669V95.3466C280.465 94.088 280.706 92.8848 281.187 91.7373C281.668 90.5897 282.335 89.5717 283.186 88.6832C284.037 87.8318 285.093 87.1655 286.351 86.6842C287.647 86.166 288.961 85.9068 290.294 85.9068C291.589 85.9068 292.866 86.166 294.125 86.6842C295.384 87.1655 296.439 87.8318 297.29 88.6832C298.216 89.5717 298.9 90.5897 299.345 91.7373C299.826 92.8848 300.067 94.088 300.067 95.3466V99.6778H294.236V95.3466C294.236 94.273 293.847 93.3476 293.07 92.5702C292.293 91.7558 291.367 91.3486 290.294 91.3486C289.183 91.3486 288.239 91.7558 287.462 92.5702C286.684 93.3476 286.296 94.273 286.296 95.3466V117.669C286.296 118.779 286.684 119.723 287.462 120.501C288.239 121.278 289.183 121.667 290.294 121.667C291.367 121.667 292.293 121.278 293.07 120.501C293.847 119.723 294.236 118.779 294.236 117.669V108.84H289.905V103.787H300.067V117.669C300.067 120.297 299.141 122.537 297.29 124.388C296.439 125.239 295.384 125.906 294.125 126.387C292.866 126.868 291.589 127.109 290.294 127.109ZM306.01 126.331V86.6842H311.84V126.331H306.01ZM327.609 127.109C326.276 127.109 324.98 126.868 323.722 126.387C322.463 125.906 321.408 125.239 320.557 124.388C318.706 122.537 317.78 120.297 317.78 117.669V113.393H323.611V117.669C323.611 118.779 323.999 119.723 324.777 120.501C325.554 121.278 326.498 121.667 327.609 121.667C328.682 121.667 329.608 121.278 330.385 120.501C331.163 119.723 331.551 118.779 331.551 117.669V116.225C331.551 115.337 331.385 114.541 331.051 113.837C330.755 113.097 330.348 112.431 329.83 111.838C329.312 111.209 328.701 110.617 327.997 110.062C327.331 109.506 326.609 108.932 325.832 108.34C325.462 108.118 325.036 107.822 324.555 107.452C323.814 106.933 323.074 106.397 322.334 105.841C321.63 105.286 321.001 104.675 320.446 104.009C318.669 101.899 317.78 99.4927 317.78 96.7903V95.3466C317.78 94.088 318.002 92.8848 318.447 91.7373C318.928 90.5897 319.631 89.5717 320.557 88.6832C321.408 87.8318 322.463 87.1655 323.722 86.6842C324.98 86.166 326.276 85.9068 327.609 85.9068C328.941 85.9068 330.237 86.166 331.496 86.6842C332.754 87.1655 333.809 87.8318 334.661 88.6832C335.549 89.5717 336.216 90.5897 336.66 91.7373C337.141 92.8848 337.382 94.088 337.382 95.3466V99.6778H331.551V95.3466C331.551 94.273 331.163 93.3476 330.385 92.5702C329.608 91.7558 328.682 91.3486 327.609 91.3486C326.498 91.3486 325.554 91.7558 324.777 92.5702C323.999 93.3476 323.611 94.273 323.611 95.3466V96.7903C323.611 97.5307 323.722 98.2155 323.944 98.8449C324.203 99.4372 324.573 100.011 325.054 100.566C325.536 101.122 326.109 101.677 326.776 102.232C327.442 102.787 328.201 103.38 329.052 104.009C329.497 104.305 329.904 104.601 330.274 104.897C331.051 105.453 331.829 106.026 332.606 106.619C333.384 107.211 334.069 107.859 334.661 108.562C336.475 110.857 337.382 113.412 337.382 116.225V117.669C337.382 120.26 336.475 122.5 334.661 124.388C333.809 125.239 332.754 125.906 331.496 126.387C330.237 126.868 328.941 127.109 327.609 127.109ZM342.782 126.331V86.6842H358.941V91.7373H348.613V104.009H357.331V109.062H348.613V121.278H358.941V126.331H342.782Z" fill="white"/>
<path d="M51.3644 328.891V295.852H64.83V300.063H56.2231V310.289H63.4881V314.5H56.2231V324.68H64.83V328.891H51.3644ZM82.8238 328.891L74.7722 308.068V328.891H69.9135V295.852H75.5126L83.3791 316.305V295.852H88.2378V328.891H82.8238ZM101.533 329.539C100.423 329.539 99.3277 329.338 98.248 328.937C97.1992 328.536 96.32 327.981 95.6104 327.271C94.9009 326.5 94.3456 325.652 93.9446 324.726C93.5436 323.77 93.343 322.752 93.343 321.672V303.07C93.343 302.022 93.5436 301.019 93.9446 300.063C94.3456 299.106 94.9009 298.258 95.6104 297.518C96.32 296.808 97.1992 296.253 98.248 295.852C99.3277 295.42 100.423 295.204 101.533 295.204C102.613 295.204 103.677 295.42 104.726 295.852C105.775 296.253 106.654 296.808 107.364 297.518C108.135 298.258 108.706 299.106 109.076 300.063C109.477 301.019 109.678 302.022 109.678 303.07V306.68H104.819V303.07C104.819 302.176 104.495 301.405 103.847 300.757C103.199 300.078 102.428 299.739 101.533 299.739C100.608 299.739 99.8213 300.078 99.1735 300.757C98.5257 301.405 98.2017 302.176 98.2017 303.07V321.672C98.2017 322.598 98.5257 323.384 99.1735 324.032C99.8213 324.68 100.608 325.004 101.533 325.004C102.428 325.004 103.199 324.68 103.847 324.032C104.495 323.384 104.819 322.598 104.819 321.672V314.315H101.21V310.104H109.678V321.672C109.678 323.863 108.906 325.729 107.364 327.271C106.654 327.981 105.775 328.536 104.726 328.937C103.677 329.338 102.613 329.539 101.533 329.539ZM126.941 328.891L125.785 321.765H119.399L118.288 328.891H113.383L119.075 295.852H126.109L131.8 328.891H126.941ZM125.091 317.554L122.592 302.191L120.093 317.554H125.091ZM143.693 329.539C142.582 329.539 141.487 329.338 140.407 328.937C139.358 328.536 138.479 327.981 137.77 327.271C137.06 326.5 136.505 325.652 136.104 324.726C135.703 323.77 135.502 322.752 135.502 321.672V303.07C135.502 302.022 135.703 301.019 136.104 300.063C136.505 299.106 137.06 298.258 137.77 297.518C138.479 296.808 139.358 296.253 140.407 295.852C141.487 295.42 142.582 295.204 143.693 295.204C144.772 295.204 145.837 295.42 146.886 295.852C147.934 296.253 148.814 296.808 149.523 297.518C150.294 298.258 150.865 299.106 151.235 300.063C151.636 301.019 151.837 302.022 151.837 303.07V306.68H146.978V303.07C146.978 302.176 146.654 301.405 146.006 300.757C145.359 300.078 144.587 299.739 143.693 299.739C142.767 299.739 141.981 300.078 141.333 300.757C140.685 301.405 140.361 302.176 140.361 303.07V321.672C140.361 322.598 140.685 323.384 141.333 324.032C141.981 324.68 142.767 325.004 143.693 325.004C144.587 325.004 145.359 324.68 146.006 324.032C146.654 323.384 146.978 322.598 146.978 321.672V314.315H143.369V310.104H151.837V321.672C151.837 323.863 151.066 325.729 149.523 327.271C148.814 327.981 147.934 328.536 146.886 328.937C145.837 329.338 144.772 329.539 143.693 329.539ZM156.944 328.891V295.852H170.409V300.063H161.802V310.289H169.067V314.5H161.802V324.68H170.409V328.891H156.944Z" fill="white"/>
<path d="M315.117 298.539C314.006 298.539 312.911 298.338 311.831 297.937C310.782 297.536 309.903 296.981 309.194 296.271C308.453 295.5 307.883 294.652 307.482 293.726C307.081 292.77 306.88 291.752 306.88 290.672V272.07C306.88 271.022 307.081 270.019 307.482 269.063C307.883 268.106 308.453 267.258 309.194 266.518C309.903 265.808 310.782 265.253 311.831 264.852C312.911 264.42 314.006 264.204 315.117 264.204C316.196 264.204 317.261 264.42 318.31 264.852C319.358 265.253 320.238 265.808 320.947 266.518C321.718 267.258 322.289 268.106 322.659 269.063C323.06 270.019 323.261 271.022 323.261 272.07V275.68H318.402V272.07C318.402 271.176 318.078 270.405 317.43 269.757C316.783 269.078 316.011 268.739 315.117 268.739C314.191 268.739 313.405 269.078 312.757 269.757C312.109 270.405 311.785 271.176 311.785 272.07V290.672C311.785 291.598 312.109 292.384 312.757 293.032C313.405 293.68 314.191 294.004 315.117 294.004C316.011 294.004 316.783 293.68 317.43 293.032C318.078 292.384 318.402 291.598 318.402 290.672V287.109H323.261V290.672C323.261 292.863 322.49 294.729 320.947 296.271C320.238 296.981 319.358 297.536 318.31 297.937C317.261 298.338 316.196 298.539 315.117 298.539ZM339.796 297.891L333.78 283.639H333.225V297.891H328.366V264.852H336.279C337.266 264.852 338.192 265.052 339.056 265.453C339.95 265.823 340.721 266.333 341.369 266.98C342.017 267.628 342.526 268.384 342.896 269.248C343.297 270.111 343.498 271.037 343.498 272.024V272.07L343.174 276.513C343.143 277.284 343.02 278.024 342.804 278.734C342.619 279.443 342.31 280.107 341.878 280.724C341.076 281.865 340.058 282.682 338.824 283.176L345.071 297.891H339.796ZM335.307 279.104C336.202 279.104 336.973 278.795 337.621 278.178C338.3 277.531 338.639 276.759 338.639 275.865V272.348C338.639 271.453 338.3 270.682 337.621 270.034C336.973 269.387 336.202 269.063 335.307 269.063H333.225V279.104H335.307ZM349.22 297.891V264.852H362.686V269.063H354.079V279.289H361.344V283.5H354.079V293.68H362.686V297.891H349.22ZM380.378 297.891L379.222 290.765H372.836L371.725 297.891H366.82L372.512 264.852H379.545L385.237 297.891H380.378ZM378.527 286.554L376.029 271.191L373.53 286.554H378.527ZM391.424 297.891V269.063H385.686V264.852H402.066V269.063H396.282V297.891H391.424ZM406.72 297.891V264.852H420.186V269.063H411.579V279.289H418.844V283.5H411.579V293.68H420.186V297.891H406.72Z" fill="white"/>
</svg>
