<svg width="447" height="447" viewBox="0 0 447 447" fill="none" xmlns="http://www.w3.org/2000/svg">
<mask id="mask0_266_907" style="mask-type:luminance" maskUnits="userSpaceOnUse" x="228" y="115" width="220" height="332">
<path d="M228.07 447H447.001V115.721H228.07V447Z" fill="white"/>
</mask>
<g mask="url(#mask0_266_907)">
<path d="M447.19 223.392C447.19 184.617 437.322 148.176 419.975 116.401L242.002 219.13C234.042 223.716 229.133 232.241 229.133 241.435V446.866C350.066 443.945 447.163 344.994 447.163 223.392H447.19Z" fill="#9b5de5"/>
</g>
<mask id="mask1_266_907" style="mask-type:luminance" maskUnits="userSpaceOnUse" x="32" y="0" width="384" height="214">
<path d="M32.1631 213.676H415.701V3.05176e-05H32.1631V213.676Z" fill="white"/>
</mask>
<g mask="url(#mask1_266_907)">
<path d="M236.506 209.634L414.452 106.91C375.192 42.7144 304.405 -0.108047 223.637 -0.108047C142.869 -0.108047 72.1094 42.7144 32.8223 106.91L210.741 209.634C218.706 214.22 228.547 214.22 236.506 209.634Z" fill="#2cb67d"/>
</g>
<mask id="mask2_266_907" style="mask-type:luminance" maskUnits="userSpaceOnUse" x="0" y="115" width="219" height="332">
<path d="M0 447H218.413V115.721H0V447Z" fill="white"/>
</mask>
<g mask="url(#mask2_266_907)">
<path d="M218.139 446.866V241.462C218.139 232.268 213.208 223.77 205.243 219.157L27.2974 116.401C9.94963 148.176 0.0820312 184.617 0.0820312 223.392C0.0820312 344.994 97.179 443.945 218.112 446.866H218.139Z" fill="#ffc75f"/>
</g>
<path d="M123.662 127.109C122.33 127.109 121.034 126.868 119.776 126.387C118.517 125.906 117.462 125.239 116.61 124.388C114.759 122.537 113.834 120.297 113.834 117.669V113.393H119.664V117.669C119.664 118.779 120.053 119.723 120.831 120.501C121.608 121.278 122.552 121.667 123.662 121.667C124.736 121.667 125.661 121.278 126.439 120.501C127.216 119.723 127.605 118.779 127.605 117.669V116.225C127.605 115.337 127.438 114.541 127.105 113.837C126.809 113.097 126.402 112.431 125.884 111.838C125.365 111.209 124.755 110.617 124.051 110.062C123.385 109.506 122.663 108.932 121.886 108.34C121.515 108.118 121.09 107.822 120.608 107.452C119.868 106.933 119.128 106.397 118.387 105.841C117.684 105.286 117.055 104.675 116.499 104.009C114.722 101.899 113.834 99.4927 113.834 96.7903V95.3466C113.834 94.088 114.056 92.8848 114.5 91.7373C114.982 90.5897 115.685 89.5717 116.61 88.6832C117.462 87.8318 118.517 87.1655 119.776 86.6842C121.034 86.166 122.33 85.9068 123.662 85.9068C124.995 85.9068 126.291 86.166 127.549 86.6842C128.808 87.1655 129.863 87.8318 130.715 88.6832C131.603 89.5717 132.269 90.5897 132.714 91.7373C133.195 92.8848 133.435 94.088 133.435 95.3466V99.6778H127.605V95.3466C127.605 94.273 127.216 93.3476 126.439 92.5702C125.661 91.7558 124.736 91.3486 123.662 91.3486C122.552 91.3486 121.608 91.7558 120.831 92.5702C120.053 93.3476 119.664 94.273 119.664 95.3466V96.7903C119.664 97.5307 119.776 98.2155 119.998 98.8449C120.257 99.4372 120.627 100.011 121.108 100.566C121.589 101.122 122.163 101.677 122.83 102.232C123.496 102.787 124.255 103.38 125.106 104.009C125.55 104.305 125.958 104.601 126.328 104.897C127.105 105.453 127.883 106.026 128.66 106.619C129.437 107.211 130.122 107.859 130.715 108.562C132.528 110.857 133.435 113.412 133.435 116.225V117.669C133.435 120.26 132.528 122.5 130.715 124.388C129.863 125.239 128.808 125.906 127.549 126.387C126.291 126.868 124.995 127.109 123.662 127.109ZM143.498 126.331V91.7373H136.613V86.6842H156.27V91.7373H149.329V126.331H143.498ZM175.384 126.331L168.166 109.229H167.5V126.331H161.669V86.6842H171.164C172.349 86.6842 173.46 86.9248 174.496 87.4061C175.57 87.8503 176.495 88.4611 177.272 89.2385C178.05 90.0159 178.661 90.9229 179.105 91.9594C179.586 92.9959 179.827 94.1065 179.827 95.2911V95.3466L179.438 100.677C179.401 101.603 179.253 102.491 178.994 103.343C178.772 104.194 178.402 104.99 177.883 105.73C176.921 107.1 175.699 108.081 174.218 108.673L181.715 126.331H175.384ZM169.998 103.787C171.072 103.787 171.997 103.417 172.775 102.676C173.589 101.899 173.996 100.973 173.996 99.8999V95.6798C173.996 94.6062 173.589 93.6807 172.775 92.9034C171.997 92.126 171.072 91.7373 169.998 91.7373H167.5V103.787H169.998ZM201.694 126.331L200.305 117.78H192.643L191.31 126.331H185.424L192.254 86.6842H200.694L207.524 126.331H201.694ZM199.473 112.727L196.474 94.2916L193.475 112.727H199.473ZM214.763 126.331V91.7373H207.877V86.6842H227.534V91.7373H220.593V126.331H214.763ZM232.934 126.331V86.6842H249.092V91.7373H238.764V104.009H247.482V109.062H238.764V121.278H249.092V126.331H232.934ZM264.294 127.109C262.961 127.109 261.647 126.868 260.351 126.387C259.093 125.906 258.037 125.239 257.186 124.388C256.335 123.462 255.668 122.444 255.187 121.334C254.706 120.186 254.465 118.965 254.465 117.669V95.3466C254.465 94.088 254.706 92.8848 255.187 91.7373C255.668 90.5897 256.335 89.5717 257.186 88.6832C258.037 87.8318 259.093 87.1655 260.351 86.6842C261.647 86.166 262.961 85.9068 264.294 85.9068C265.589 85.9068 266.866 86.166 268.125 86.6842C269.384 87.1655 270.439 87.8318 271.29 88.6832C272.216 89.5717 272.9 90.5897 273.345 91.7373C273.826 92.8848 274.067 94.088 274.067 95.3466V99.6778H268.236V95.3466C268.236 94.273 267.847 93.3476 267.07 92.5702C266.293 91.7558 265.367 91.3486 264.294 91.3486C263.183 91.3486 262.239 91.7558 261.462 92.5702C260.684 93.3476 260.296 94.273 260.296 95.3466V117.669C260.296 118.779 260.684 119.723 261.462 120.501C262.239 121.278 263.183 121.667 264.294 121.667C265.367 121.667 266.293 121.278 267.07 120.501C267.847 119.723 268.236 118.779 268.236 117.669V108.84H263.905V103.787H274.067V117.669C274.067 120.297 273.141 122.537 271.29 124.388C270.439 125.239 269.384 125.906 268.125 126.387C266.866 126.868 265.589 127.109 264.294 127.109ZM280.01 126.331V86.6842H285.84V126.331H280.01ZM301.609 127.109C300.276 127.109 298.98 126.868 297.722 126.387C296.463 125.906 295.408 125.239 294.557 124.388C292.706 122.537 291.78 120.297 291.78 117.669V113.393H297.611V117.669C297.611 118.779 297.999 119.723 298.777 120.501C299.554 121.278 300.498 121.667 301.609 121.667C302.682 121.667 303.608 121.278 304.385 120.501C305.163 119.723 305.551 118.779 305.551 117.669V116.225C305.551 115.337 305.385 114.541 305.051 113.837C304.755 113.097 304.348 112.431 303.83 111.838C303.312 111.209 302.701 110.617 301.997 110.062C301.331 109.506 300.609 108.932 299.832 108.34C299.462 108.118 299.036 107.822 298.555 107.452C297.814 106.933 297.074 106.397 296.334 105.841C295.63 105.286 295.001 104.675 294.446 104.009C292.669 101.899 291.78 99.4927 291.78 96.7903V95.3466C291.78 94.088 292.002 92.8848 292.447 91.7373C292.928 90.5897 293.631 89.5717 294.557 88.6832C295.408 87.8318 296.463 87.1655 297.722 86.6842C298.98 86.166 300.276 85.9068 301.609 85.9068C302.941 85.9068 304.237 86.166 305.496 86.6842C306.754 87.1655 307.809 87.8318 308.661 88.6832C309.549 89.5717 310.216 90.5897 310.66 91.7373C311.141 92.8848 311.382 94.088 311.382 95.3466V99.6778H305.551V95.3466C305.551 94.273 305.163 93.3476 304.385 92.5702C303.608 91.7558 302.682 91.3486 301.609 91.3486C300.498 91.3486 299.554 91.7558 298.777 92.5702C297.999 93.3476 297.611 94.273 297.611 95.3466V96.7903C297.611 97.5307 297.722 98.2155 297.944 98.8449C298.203 99.4372 298.573 100.011 299.054 100.566C299.536 101.122 300.109 101.677 300.776 102.232C301.442 102.787 302.201 103.38 303.052 104.009C303.497 104.305 303.904 104.601 304.274 104.897C305.051 105.453 305.829 106.026 306.606 106.619C307.384 107.211 308.069 107.859 308.661 108.562C310.475 110.857 311.382 113.412 311.382 116.225V117.669C311.382 120.26 310.475 122.5 308.661 124.388C307.809 125.239 306.754 125.906 305.496 126.387C304.237 126.868 302.941 127.109 301.609 127.109ZM316.782 126.331V86.6842H332.941V91.7373H322.613V104.009H331.331V109.062H322.613V121.278H332.941V126.331H316.782Z" fill="white"/>
<path d="M51.3644 297.891V264.852H64.83V269.063H56.2231V279.289H63.4881V283.5H56.2231V293.68H64.83V297.891H51.3644ZM82.8238 297.891L74.7722 277.068V297.891H69.9135V264.852H75.5126L83.3791 285.305V264.852H88.2378V297.891H82.8238ZM101.533 298.539C100.423 298.539 99.3277 298.338 98.248 297.937C97.1992 297.536 96.32 296.981 95.6104 296.271C94.9009 295.5 94.3456 294.652 93.9446 293.726C93.5436 292.77 93.343 291.752 93.343 290.672V272.07C93.343 271.022 93.5436 270.019 93.9446 269.063C94.3456 268.106 94.9009 267.258 95.6104 266.518C96.32 265.808 97.1992 265.253 98.248 264.852C99.3277 264.42 100.423 264.204 101.533 264.204C102.613 264.204 103.677 264.42 104.726 264.852C105.775 265.253 106.654 265.808 107.364 266.518C108.135 267.258 108.706 268.106 109.076 269.063C109.477 270.019 109.678 271.022 109.678 272.07V275.68H104.819V272.07C104.819 271.176 104.495 270.405 103.847 269.757C103.199 269.078 102.428 268.739 101.533 268.739C100.608 268.739 99.8213 269.078 99.1735 269.757C98.5257 270.405 98.2017 271.176 98.2017 272.07V290.672C98.2017 291.598 98.5257 292.384 99.1735 293.032C99.8213 293.68 100.608 294.004 101.533 294.004C102.428 294.004 103.199 293.68 103.847 293.032C104.495 292.384 104.819 291.598 104.819 290.672V283.315H101.21V279.104H109.678V290.672C109.678 292.863 108.906 294.729 107.364 296.271C106.654 296.981 105.775 297.536 104.726 297.937C103.677 298.338 102.613 298.539 101.533 298.539ZM126.941 297.891L125.785 290.765H119.399L118.288 297.891H113.383L119.075 264.852H126.109L131.8 297.891H126.941ZM125.091 286.554L122.592 271.191L120.093 286.554H125.091ZM143.693 298.539C142.582 298.539 141.487 298.338 140.407 297.937C139.358 297.536 138.479 296.981 137.77 296.271C137.06 295.5 136.505 294.652 136.104 293.726C135.703 292.77 135.502 291.752 135.502 290.672V272.07C135.502 271.022 135.703 270.019 136.104 269.063C136.505 268.106 137.06 267.258 137.77 266.518C138.479 265.808 139.358 265.253 140.407 264.852C141.487 264.42 142.582 264.204 143.693 264.204C144.772 264.204 145.837 264.42 146.886 264.852C147.934 265.253 148.814 265.808 149.523 266.518C150.294 267.258 150.865 268.106 151.235 269.063C151.636 270.019 151.837 271.022 151.837 272.07V275.68H146.978V272.07C146.978 271.176 146.654 270.405 146.006 269.757C145.359 269.078 144.587 268.739 143.693 268.739C142.767 268.739 141.981 269.078 141.333 269.757C140.685 270.405 140.361 271.176 140.361 272.07V290.672C140.361 291.598 140.685 292.384 141.333 293.032C141.981 293.68 142.767 294.004 143.693 294.004C144.587 294.004 145.359 293.68 146.006 293.032C146.654 292.384 146.978 291.598 146.978 290.672V283.315H143.369V279.104H151.837V290.672C151.837 292.863 151.066 294.729 149.523 296.271C148.814 296.981 147.934 297.536 146.886 297.937C145.837 298.338 144.772 298.539 143.693 298.539ZM156.944 297.891V264.852H170.409V269.063H161.802V279.289H169.067V283.5H161.802V293.68H170.409V297.891H156.944Z" fill="white"/>
<path d="M289.117 298.539C288.006 298.539 286.911 298.338 285.831 297.937C284.782 297.536 283.903 296.981 283.194 296.271C282.453 295.5 281.883 294.652 281.482 293.726C281.081 292.77 280.88 291.752 280.88 290.672V272.07C280.88 271.022 281.081 270.019 281.482 269.063C281.883 268.106 282.453 267.258 283.194 266.518C283.903 265.808 284.782 265.253 285.831 264.852C286.911 264.42 288.006 264.204 289.117 264.204C290.196 264.204 291.261 264.42 292.31 264.852C293.358 265.253 294.238 265.808 294.947 266.518C295.718 267.258 296.289 268.106 296.659 269.063C297.06 270.019 297.261 271.022 297.261 272.07V275.68H292.402V272.07C292.402 271.176 292.078 270.405 291.43 269.757C290.783 269.078 290.011 268.739 289.117 268.739C288.191 268.739 287.405 269.078 286.757 269.757C286.109 270.405 285.785 271.176 285.785 272.07V290.672C285.785 291.598 286.109 292.384 286.757 293.032C287.405 293.68 288.191 294.004 289.117 294.004C290.011 294.004 290.783 293.68 291.43 293.032C292.078 292.384 292.402 291.598 292.402 290.672V287.109H297.261V290.672C297.261 292.863 296.49 294.729 294.947 296.271C294.238 296.981 293.358 297.536 292.31 297.937C291.261 298.338 290.196 298.539 289.117 298.539ZM313.796 297.891L307.78 283.639H307.225V297.891H302.366V264.852H310.279C311.266 264.852 312.192 265.052 313.056 265.453C313.95 265.823 314.721 266.333 315.369 266.98C316.017 267.628 316.526 268.384 316.896 269.248C317.297 270.111 317.498 271.037 317.498 272.024V272.07L317.174 276.513C317.143 277.284 317.02 278.024 316.804 278.734C316.619 279.443 316.31 280.107 315.878 280.724C315.076 281.865 314.058 282.682 312.824 283.176L319.071 297.891H313.796ZM309.307 279.104C310.202 279.104 310.973 278.795 311.621 278.178C312.3 277.531 312.639 276.759 312.639 275.865V272.348C312.639 271.453 312.3 270.682 311.621 270.034C310.973 269.387 310.202 269.063 309.307 269.063H307.225V279.104H309.307ZM323.22 297.891V264.852H336.686V269.063H328.079V279.289H335.344V283.5H328.079V293.68H336.686V297.891H323.22ZM354.378 297.891L353.222 290.765H346.836L345.725 297.891H340.82L346.512 264.852H353.545L359.237 297.891H354.378ZM352.527 286.554L350.029 271.191L347.53 286.554H352.527ZM365.424 297.891V269.063H359.686V264.852H376.066V269.063H370.282V297.891H365.424ZM380.72 297.891V264.852H394.186V269.063H385.579V279.289H392.844V283.5H385.579V293.68H394.186V297.891H380.72Z" fill="white"/>
</svg>
