<svg width="384" height="214" viewBox="0 0 384 214" fill="none" xmlns="http://www.w3.org/2000/svg">
<mask id="mask0_6_2" style="mask-type:luminance" maskUnits="userSpaceOnUse" x="0" y="0" width="384" height="214">
<path d="M0 213.676H383.537V0H0V213.676Z" fill="white"/>
</mask>
<g mask="url(#mask0_6_2)">
<path d="M204.343 209.634L382.289 106.91C343.029 42.7144 272.242 -0.108047 191.474 -0.108047C110.706 -0.108047 39.9463 42.7144 0.65918 106.91L178.578 209.634C186.543 214.22 196.384 214.22 204.343 209.634Z" fill="#7F5AF0"/>
</g>
<path d="M114.726 114V70.26H120.72V114H114.726ZM127.797 114V70.26H131.955L144.375 99.312V70.26H149.451V114H145.563L132.981 84.138V114H127.797ZM161.132 114V74.796H153.734V70.26H174.416V74.796H167.234V114H161.132ZM178.632 114V70.26H195.588V74.796H184.734V89.268H193.536V93.588H184.734V109.626H195.696V114H178.632ZM200.623 114V70.26H204.781L217.201 99.312V70.26H222.277V114H218.389L205.807 84.138V114H200.623ZM233.958 114V74.796H226.56V70.26H247.242V74.796H240.06V114H233.958ZM261.773 114.486C259.253 114.486 257.147 113.946 255.455 112.866C253.799 111.786 252.539 110.292 251.675 108.384C250.811 106.476 250.307 104.262 250.163 101.742L255.563 100.284C255.671 101.832 255.905 103.326 256.265 104.766C256.661 106.206 257.291 107.394 258.155 108.33C259.019 109.23 260.225 109.68 261.773 109.68C263.357 109.68 264.545 109.248 265.337 108.384C266.165 107.484 266.579 106.206 266.579 104.55C266.579 102.57 266.129 100.986 265.229 99.798C264.329 98.574 263.195 97.35 261.827 96.126L254.483 89.646C253.043 88.386 251.981 87.018 251.297 85.542C250.613 84.03 250.271 82.176 250.271 79.98C250.271 76.776 251.189 74.292 253.025 72.528C254.861 70.764 257.363 69.882 260.531 69.882C262.259 69.882 263.771 70.116 265.067 70.584C266.399 71.016 267.497 71.7 268.361 72.636C269.261 73.572 269.963 74.76 270.467 76.2C271.007 77.604 271.367 79.26 271.547 81.168L266.363 82.572C266.255 81.132 266.039 79.818 265.715 78.63C265.391 77.406 264.815 76.434 263.987 75.714C263.195 74.958 262.043 74.58 260.531 74.58C259.019 74.58 257.831 74.994 256.967 75.822C256.139 76.614 255.725 77.802 255.725 79.386C255.725 80.718 255.941 81.816 256.373 82.68C256.841 83.544 257.579 84.426 258.587 85.326L265.985 91.806C267.641 93.246 269.099 94.974 270.359 96.99C271.619 98.97 272.249 101.328 272.249 104.064C272.249 106.224 271.799 108.096 270.899 109.68C269.999 111.228 268.757 112.416 267.173 113.244C265.625 114.072 263.825 114.486 261.773 114.486Z" fill="white"/>
</svg>
